<svg width="350" height="268" viewBox="0 0 350 268" fill="none" xmlns="http://www.w3.org/2000/svg">
<path d="M301.904 79.9382H237.801C234.528 79.9382 231.875 77.0574 231.875 73.5058V21.8699C231.875 18.3169 234.528 15.4362 237.801 15.4362H301.904C305.176 15.4362 307.83 18.3169 307.83 21.8699V73.5058C307.83 77.0574 305.176 79.9382 301.904 79.9382" fill="white"/>
<path d="M245.005 75.1584L244.968 88.3737L258.704 75.1584H245.005Z" fill="white"/>
<path d="M248.321 17.4899C248.321 25.1833 242.577 31.4172 235.491 31.4172C228.406 31.4172 222.663 25.1833 222.663 17.4899C222.663 9.79784 228.406 3.56397 235.491 3.56397C242.577 3.56397 248.321 9.79784 248.321 17.4899Z" fill="#42B451"/>
<path d="M229.784 18.1882L234.586 21.9972L240.299 14.1203" stroke="white" stroke-width="2.33923" stroke-miterlimit="10" stroke-linecap="round" stroke-linejoin="round"/>
<path d="M252.643 34.9237L269.309 46.7191L286.975 34.9237" stroke="white" stroke-width="1.20031" stroke-miterlimit="10" stroke-linecap="round" stroke-linejoin="round"/>
<path d="M120.17 196.792H165.852C168.969 196.792 171.209 193.483 170.326 190.18L148.511 108.547C147.926 106.357 146.105 104.853 144.038 104.853H98.3543C95.239 104.853 92.999 108.164 93.8819 111.465L115.696 193.1C116.282 195.29 118.103 196.792 120.17 196.792Z" fill="#232238"/>
<path d="M126.456 196.792H166.247C169.363 196.792 171.603 193.483 170.72 190.18L148.906 108.547C148.32 106.357 146.5 104.853 144.431 104.853H104.64C101.525 104.853 99.285 108.164 100.167 111.465L121.982 193.1C122.568 195.29 124.389 196.792 126.456 196.792Z" fill="#B2B2E0"/>
<path d="M126.402 258.853V263.316H169.264V258.853H126.402Z" fill="#232238"/>
<path d="M165.398 262.421C165.044 264.738 166.488 266.93 168.623 267.313C170.758 267.699 172.776 266.13 173.131 263.814C173.484 261.494 172.041 259.305 169.904 258.919C167.77 258.535 165.751 260.103 165.398 262.421Z" fill="#232238"/>
<path d="M145.661 260.681H149.774V196.103H145.661V260.681Z" fill="#232238"/>
<path d="M122.535 262.421C122.182 264.738 123.626 266.93 125.76 267.313C127.895 267.699 129.913 266.13 130.267 263.814C130.622 261.494 129.178 259.305 127.042 258.919C124.907 258.535 122.889 260.103 122.535 262.421Z" fill="#232238"/>
<path d="M121.456 196.792H169.807C172.062 196.792 173.891 194.808 173.891 192.36C173.891 189.912 172.062 187.928 169.807 187.928H121.456C119.201 187.928 117.372 189.912 117.372 192.36C117.372 194.808 119.201 196.792 121.456 196.792" fill="#232238"/>
<path d="M139.401 74.7531C143.769 71.6957 144.502 63.4149 144.502 63.4149L160.338 61.0832L173.02 69.5269C173.02 69.5269 169.198 81.5374 172.192 86.1474C175.132 90.6753 178.655 98.7671 171.407 104.883C164.158 110.999 153.497 104.844 153.497 104.844C153.497 104.844 134.914 105.391 129.043 97.7293C118.273 83.6733 137.096 76.366 139.401 74.7531" fill="#141114"/>
<path d="M141.114 241.857L136.869 252.338L143.032 257.948L144.729 255.126C144.729 255.126 152.381 264.403 165.16 265.532C165.16 265.532 171.13 265.194 161.423 256.435L141.114 241.857" fill="#232238"/>
<path d="M141.114 241.857L149.419 228.237L158.498 234.336L152.377 244.856C152.377 244.856 161.462 256.067 161.423 256.435C161.383 256.804 162.67 258.701 160.073 258.378C157.476 258.054 141.587 247.423 141.114 241.857Z" fill="#C8655B"/>
<path d="M174.953 156.99L140.966 230.076L162.264 238.537L203.651 179.505C209.855 170.655 204.237 157.892 193.995 157.578L174.953 156.99Z" fill="#E12B3F"/>
<path d="M206.778 252.873L209.921 265.482H217.028V262.22C217.028 262.22 224.134 265.187 231.104 264C238.073 262.812 244.085 262.071 242.036 259.179C239.985 256.286 230.762 254.203 230.762 254.203L206.778 252.873Z" fill="#232238"/>
<path d="M199.412 235.277L206.778 252.873C206.778 252.873 207.735 255.693 213.338 256.582C218.94 257.473 235.203 259.253 233.153 255.545L216.85 248.457L209.424 229.286L199.412 235.277" fill="#C8655B"/>
<path d="M127.677 153.322C127.677 153.322 126.889 155.21 126.187 158.181C122.574 173.507 133.452 188.373 148.023 188.373H167.349L194.171 241.289L220.904 239.686L190.804 166.472C188.742 161.456 184.315 158.069 179.272 157.647L127.677 153.322" fill="#EF3649"/>
<path d="M177.27 122.376L186.335 149.925H176.753L164.84 123.08L177.27 122.376" fill="#B24C48"/>
<path d="M170.094 101.752C170.094 101.752 175.828 102.625 180.46 126.614L162.927 126.946L170.094 101.752Z" fill="#FEFEFF"/>
<path d="M163.347 98.6795L170.094 101.752C171.341 102.346 172.166 103.648 172.243 105.123C172.586 111.662 172.712 129.772 164.56 139.274L157.504 149.925H129.855L129.378 97.9634L131.892 89.1391L143.495 92.2745L163.347 98.6795Z" fill="#FEFEFF"/>
<path d="M170.886 126.794C170.886 126.794 173.196 121.181 172.474 111.809" stroke="#E3E7EA" stroke-width="1.01584" stroke-miterlimit="10"/>
<path d="M149.505 134.212L186.83 135.894L188.249 142.758L150.565 147.406C144.566 148.147 138.932 144.15 137.146 137.89L136.378 135.193L149.505 134.212Z" fill="#C8655B"/>
<path d="M186.83 135.894C186.83 135.894 191.586 135.671 197.677 142.269L202.167 147.912L195.928 148.482L186.83 142.188V135.894Z" fill="#C8655B"/>
<path d="M144.528 115.442L149.505 134.212L136.378 135.193L127.991 109.56L144.528 115.442Z" fill="#C8655B"/>
<path d="M138.571 95.2237L144.528 115.442L127.359 116.074L123.368 99.9542C122.173 95.1251 125.017 90.2125 129.545 89.2883C133.508 88.4791 137.397 91.0354 138.571 95.2237" fill="#FEFEFF"/>
<path d="M144.528 115.442L141.566 105.384" stroke="#E3E7EA" stroke-width="1.01584" stroke-miterlimit="10"/>
<path d="M148.468 95.8412L151.996 81.1704C151.996 81.1704 154.208 82.0399 156.241 82.734C158.276 83.4282 159.992 82.6807 160.525 84.0567C160.536 84.0868 162.386 82.6355 162.386 82.6355L159.826 99.0382C159.809 99.2094 159.808 99.3805 159.813 99.5503L148.39 96.2834C148.424 96.1397 148.453 95.9918 148.468 95.8412" fill="#C8655B"/>
<path d="M161.213 90.1687C161.213 90.1687 153.593 90.6616 151.804 79.956L162.36 82.9353L161.213 90.1687" fill="#9C3939"/>
<path d="M144.532 63.1561C143.022 72.6377 151.059 80.9993 159.517 82.0084C164.033 82.5478 174.919 75.895 175.888 66.3285C176.856 56.7634 171.341 49.7697 162.898 48.6168C155.086 47.5502 146.312 51.9891 144.532 63.1561" fill="#141114"/>
<path d="M166.679 74.5354C166.45 76.811 167.962 78.8579 170.058 79.1071C172.153 79.3576 174.04 77.716 174.27 75.4404C174.5 73.1662 172.988 71.1165 170.892 70.8673C168.796 70.6168 166.91 72.2584 166.679 74.5354Z" fill="#B24C48"/>
<path d="M149.881 63.0028C149.345 68.2851 149.577 72.928 149.941 76.2455C150.298 79.4946 151.982 81.9358 154.497 84.0402L154.955 84.4222C157.617 86.6485 161.298 87.1332 164.378 85.66C167.484 84.1758 169.773 82.0056 170.747 78.6813C172.518 72.635 173.337 65.8028 173.337 65.8028C173.337 65.8028 175.777 52.5943 163.1 51.3442C150.423 50.0928 149.881 63.0028 149.881 63.0028Z" fill="#C8655B"/>
<path d="M168.73 56.2856C168.73 56.2856 163.722 66.0013 147.136 67.1897C147.136 67.1897 147.884 49.0166 160.265 49.2097C160.265 49.2097 166.5 48.4443 168.73 56.2856" fill="#141114"/>
<path d="M165.167 56.3623C165.167 56.3623 167.625 65.1935 174.485 68.7082C174.485 68.7082 177.047 54.9055 165.302 50.3981C165.302 50.3981 167.374 49.4493 165.167 56.3623Z" fill="#141114"/>
<path d="M167.004 73.0964C166.933 73.7947 167.397 74.4231 168.04 74.5011C168.685 74.5778 169.265 74.074 169.336 73.3743C169.406 72.6747 168.941 72.0462 168.298 71.9682C167.653 71.8929 167.074 72.3967 167.004 73.0964Z" fill="#141114"/>
<path d="M156.852 71.6875C156.781 72.3858 157.247 73.0156 157.891 73.0923C158.534 73.1689 159.113 72.6651 159.184 71.9668C159.256 71.2671 158.79 70.6373 158.147 70.5606C157.503 70.484 156.922 70.9892 156.852 71.6875Z" fill="#141114"/>
<path d="M164.245 74.7367L164.407 77.3066C164.362 77.7365 163.98 78.0172 163.616 77.8885L162.873 77.4805" stroke="#131112" stroke-width="0.624499" stroke-miterlimit="10" stroke-linecap="round" stroke-linejoin="round"/>
<path d="M162.212 68.0455L154.961 69.1805C154.961 69.1805 155.5 67.072 158.462 66.6366C161.426 66.2012 162.212 68.0455 162.212 68.0455Z" fill="#141114"/>
<path d="M165.673 68.6561L171.979 71.4096C171.979 71.4096 171.901 69.2271 169.318 68.129C166.736 67.0309 165.673 68.6561 165.673 68.6561" fill="#141114"/>
<path d="M164.118 80.1518C164.118 80.1518 161.429 81.039 159.504 78.9058" stroke="#131112" stroke-width="0.624499" stroke-miterlimit="10" stroke-linecap="round" stroke-linejoin="round"/>
<path d="M154.188 62.5592C154.075 62.8275 149.963 71.9052 149.963 71.9052L148.629 62.9275L154.188 62.5592Z" fill="#141114"/>
<path d="M144.362 71.2357C144.131 73.5113 145.644 75.5596 147.739 75.8088C149.836 76.0607 151.721 74.419 151.952 72.1421C152.183 69.8665 150.67 67.8196 148.574 67.5704C146.478 67.3198 144.593 68.9615 144.362 71.2357Z" fill="#C8655B"/>
<path d="M146.71 70.1157C146.71 70.1157 149.605 69.5393 149.605 72.7445" stroke="#131112" stroke-width="0.624499" stroke-miterlimit="10" stroke-linecap="round" stroke-linejoin="round"/>
<path d="M163.347 98.6795L143.495 92.2745C143.495 92.2745 143.855 99.7598 155.647 102.606C157.491 103.053 159.425 103.109 161.259 102.613C162.693 102.227 163.142 99.9912 163.347 98.6795" fill="#C8655B"/>
<path d="M280.912 266.721H285.051V155.196H280.912V266.721Z" fill="#232238"/>
<path d="M221.229 266.721H225.369V155.196H221.229V266.721Z" fill="#232238"/>
<path d="M134.847 266.721H138.985V155.196H134.847V266.721Z" fill="#232238"/>
<path d="M75.1651 266.721H79.3045V155.196H75.1651V266.721Z" fill="#232238"/>
<path d="M115.622 160.468H298.615V149.925H115.622V160.468Z" fill="#32375C"/>
<path d="M62.4001 160.468H115.622V149.925H62.4001V160.468Z" fill="#232238"/>
<path d="M177.396 150.314H207.306V146.65H177.396C176.464 146.65 175.709 147.472 175.709 148.482C175.709 149.495 176.464 150.314 177.396 150.314" fill="#1F2127"/>
<path d="M203.369 150.314H246.312C248.594 150.314 250.596 148.663 251.209 146.275L259.679 113.242C259.99 112.03 259.15 110.83 257.991 110.83H214.541C213.592 110.83 212.763 111.525 212.522 112.522L203.369 150.314" fill="#2A2F3A"/>
<path d="M230.009 131.333C230.009 133.581 231.687 135.404 233.757 135.404C235.829 135.404 237.508 133.581 237.508 131.333C237.508 129.084 235.829 127.261 233.757 127.261C231.687 127.261 230.009 129.084 230.009 131.333Z" fill="white"/>
<path d="M349.89 266.642H0" stroke="#272D36" stroke-width="1.35445" stroke-miterlimit="10"/>
<path d="M86.1115 13.1441L78.3687 5.10841L52.4932 33.7681L60.8438 42.3459L86.1115 13.1441Z" fill="#C6CCCE"/>
<path d="M90.99 26.7332C90.99 37.8263 82.7049 46.8204 72.485 46.8204C62.2652 46.8204 53.9814 37.8263 53.9814 26.7332C53.9814 15.6388 62.2652 6.646 72.485 6.646C82.7049 6.646 90.99 15.6388 90.99 26.7332Z" fill="#C6CCCE"/>
<path d="M84.5462 20.0872C84.5462 31.1817 76.2611 40.1758 66.0413 40.1758C55.8228 40.1758 47.5364 31.1817 47.5364 20.0872C47.5364 8.99413 55.8228 -2.02749e-06 66.0413 -2.02749e-06C76.2611 -2.02749e-06 84.5462 8.99413 84.5462 20.0872Z" fill="#FFFFFC"/>
<path d="M77.9172 11.9488L66.2002 20.0872" stroke="#F03755" stroke-width="1.00824" stroke-miterlimit="10"/>
<path d="M68.4591 20.0872C68.4591 21.6617 67.2848 22.9392 65.8331 22.9392C64.384 22.9392 63.2073 21.6617 63.2073 20.0872C63.2073 18.5126 64.384 17.2365 65.8331 17.2365C67.2848 17.2365 68.4591 18.5126 68.4591 20.0872Z" fill="#C6CCCE"/>
<path d="M59.3744 13.9396L65.3388 20.0872" stroke="#C6CCCE" stroke-width="1.00824" stroke-miterlimit="10"/>
<path d="M278.816 41.76H281.654C282.03 41.76 282.391 41.9094 282.657 42.1753C282.923 42.4413 283.073 42.802 283.073 43.1781V60.195C283.073 60.5711 282.923 60.9318 282.657 61.1977C282.391 61.4637 282.03 61.6131 281.654 61.6131H258.952C258.575 61.6131 258.214 61.4637 257.948 61.1977C257.682 60.9318 257.533 60.5711 257.533 60.195V43.1781C257.533 42.802 257.682 42.4413 257.948 42.1753C258.214 41.9094 258.575 41.76 258.952 41.76H261.789V40.3419C261.789 38.0853 262.686 35.9211 264.283 34.3255C265.88 32.7298 268.045 31.8334 270.303 31.8334C272.561 31.8334 274.726 32.7298 276.323 34.3255C277.919 35.9211 278.816 38.0853 278.816 40.3419V41.76ZM275.978 41.76V40.3419C275.978 38.8375 275.38 37.3947 274.316 36.331C273.252 35.2672 271.808 34.6696 270.303 34.6696C268.798 34.6696 267.354 35.2672 266.29 36.331C265.225 37.3947 264.627 38.8375 264.627 40.3419V41.76H275.978ZM268.884 50.2684V53.1046H271.722V50.2684H268.884ZM263.208 50.2684V53.1046H266.046V50.2684H263.208ZM274.56 50.2684V53.1046H277.397V50.2684H274.56Z" fill="#7B6CCD"/>
</svg>
