<svg width="530" height="478" viewBox="0 0 530 478" fill="none" xmlns="http://www.w3.org/2000/svg">
<path d="M38.8342 380.312C58.3621 384.611 72.7197 395.37 70.894 404.349C69.0885 413.35 51.7789 417.154 32.2395 412.864C12.7001 408.575 -1.67979 397.793 0.158317 388.804C1.98459 379.824 19.2747 375.999 38.8342 380.312Z" fill="#17B1AC"/>
<path d="M4.45088 389.616C4.45132 389.616 4.59957 389.598 4.90371 389.568C5.81685 389.478 8.07691 389.296 11.3796 389.296C22.1149 389.294 43.8534 391.223 66.1985 404.458C66.5446 404.664 66.9844 404.538 67.182 404.177C67.3781 403.815 67.257 403.356 66.9109 403.152C44.2624 389.741 22.276 387.794 11.3796 387.792C6.90808 387.792 4.30149 388.121 4.27726 388.124C3.88183 388.174 3.60019 388.548 3.64806 388.96C3.69594 389.372 4.05532 389.667 4.45088 389.616" fill="#5DC8B8"/>
<path d="M59.5144 356.772C73.0067 378.615 76.4374 401.369 67.1863 407.569C57.9425 413.806 39.499 401.092 26.0396 379.266C12.5266 357.402 9.11623 334.674 18.3553 328.481C27.5982 322.246 46.0222 334.934 59.5144 356.772Z" fill="#159D9E"/>
<path d="M17.9159 331.091C17.9159 331.093 18.0477 331.198 18.3085 331.414C22.2213 334.659 54.2305 362.272 67.492 404.042C67.6175 404.436 68.0256 404.649 68.4034 404.519C68.7813 404.388 68.9861 403.962 68.862 403.568C54.5247 358.491 18.842 329.948 18.7942 329.899C18.478 329.646 18.0257 329.708 17.783 330.037C17.5401 330.366 17.5998 330.839 17.9159 331.091" fill="#3BBCA9"/>
<path d="M16.2705 355.717C21.5295 359.014 28.3328 359.812 33.9182 359.818C39.7423 359.818 44.2517 358.928 44.2798 358.922C44.5215 358.874 44.7226 358.703 44.8144 358.465C44.8363 358.405 46.5167 354.052 46.5181 347.613C46.5181 345.352 46.3106 342.835 45.7479 340.159C45.6628 339.753 45.2781 339.496 44.8894 339.586C44.5 339.674 44.2539 340.074 44.339 340.48C44.877 343.039 45.0765 345.448 45.0765 347.613C45.0765 350.695 44.6719 353.283 44.2692 355.091C44.068 355.996 43.867 356.706 43.7177 357.187C43.6433 357.426 43.5819 357.61 43.539 357.73L43.4912 357.865L43.4772 357.903L44.1457 358.184L44.0117 357.446C44.0112 357.446 43.747 357.497 43.2456 357.58C41.7438 357.823 38.1813 358.315 33.9182 358.315C28.4663 358.321 21.8755 357.495 17.0156 354.428C16.6743 354.215 16.2315 354.329 16.0253 354.684C15.8198 355.04 15.9296 355.502 16.2705 355.717" fill="#3BBCA9"/>
<path d="M20.5844 389.19C20.5838 389.19 20.5049 389.285 20.3478 389.467C19.2487 390.744 14.4198 396.147 8.84526 399.825C8.50896 400.046 8.40874 400.51 8.6216 400.861C8.83517 401.212 9.28078 401.316 9.61708 401.094C16.2231 396.727 21.6474 390.202 21.6726 390.177C21.9341 389.863 21.9019 389.389 21.6011 389.117C21.3008 388.843 20.8451 388.878 20.5844 389.19" fill="#5DC8B8"/>
<path d="M14.0796 382.295L14.1293 382.316C14.4024 382.435 15.7544 383.056 17.1424 384.151C18.5366 385.245 19.937 386.804 20.4323 388.739C20.5359 389.141 20.9319 389.378 21.3161 389.27C21.7009 389.162 21.9284 388.75 21.8247 388.348C21.1494 385.765 19.3197 383.927 17.7064 382.716C16.0856 381.506 14.6441 380.912 14.6098 380.897C14.2391 380.745 13.8205 380.935 13.6741 381.32C13.5276 381.706 13.7096 382.144 14.0796 382.295" fill="#5DC8B8"/>
<path d="M33.3846 391.797C33.3846 391.799 33.2929 391.973 33.1126 392.298C32.4833 393.433 30.8036 396.343 28.5733 399.304C26.3499 402.268 23.5496 405.272 20.8203 406.608C20.4604 406.786 20.3066 407.234 20.4767 407.61C20.6468 407.984 21.0767 408.145 21.4367 407.968C24.9838 406.204 28.2264 402.349 30.6543 398.936C33.0726 395.523 34.6397 392.539 34.6499 392.521C34.8409 392.155 34.7129 391.7 34.3637 391.5C34.0144 391.3 33.5761 391.434 33.3846 391.797Z" fill="#5DC8B8"/>
<path d="M34.7366 345.036C34.7372 345.027 34.9783 341.219 34.9789 337.455C34.9777 335.571 34.9197 333.706 34.7315 332.291C34.6763 331.88 34.3119 331.593 33.9176 331.65C33.5232 331.708 33.2483 332.088 33.303 332.5C33.4753 333.779 33.5373 335.609 33.5368 337.455C33.5368 339.305 33.4771 341.178 33.4174 342.587C33.3577 343.997 33.2979 344.935 33.2979 344.938C33.2714 345.352 33.5722 345.71 33.97 345.737C34.3671 345.765 34.7108 345.451 34.7366 345.036" fill="#3BBCA9"/>
<path d="M14.999 344.117C15.008 344.12 17.3734 344.759 20.4913 345.4C23.6128 346.04 27.4737 346.685 30.5376 346.688C31.6694 346.687 32.6934 346.601 33.5627 346.374C33.949 346.272 34.1828 345.863 34.0855 345.461C33.988 345.059 33.5959 344.815 33.21 344.916C32.5234 345.098 31.595 345.185 30.5376 345.185C27.6613 345.186 23.8431 344.558 20.7708 343.925C19.2328 343.609 17.8781 343.293 16.9086 343.056C15.9398 342.818 15.3624 342.662 15.3606 342.662C14.9753 342.558 14.5816 342.799 14.4818 343.2C14.3822 343.603 14.6131 344.014 14.999 344.117" fill="#3BBCA9"/>
<path d="M51.2828 368.074C51.2828 368.074 51.1718 368.112 50.9512 368.182C49.4081 368.678 42.684 370.681 35.8013 370.678C31.8688 370.681 27.9008 370.021 24.8278 368.139C24.4843 367.93 24.0426 368.05 23.8415 368.408C23.6398 368.766 23.7553 369.226 24.0989 369.436C27.5154 371.518 31.7206 372.18 35.8013 372.181C43.9622 372.178 51.6953 369.511 51.7342 369.501C52.1135 369.371 52.3183 368.946 52.1943 368.552C52.0688 368.158 51.6621 367.943 51.2828 368.074" fill="#3BBCA9"/>
<path d="M52.5072 349.834L52.5245 349.937C52.6096 350.444 52.9629 352.752 52.9614 355.855C52.9629 359.295 52.5245 363.708 50.8473 367.724C50.6887 368.106 50.856 368.548 51.2208 368.713C51.5871 368.878 52.0111 368.704 52.1697 368.324C53.9608 364.027 54.4021 359.424 54.4035 355.855C54.4035 352.173 53.9291 349.584 53.9233 349.551C53.8483 349.143 53.4705 348.876 53.0797 348.954C52.6889 349.032 52.4322 349.426 52.5072 349.834" fill="#3BBCA9"/>
<path d="M31.8429 383.736C31.8997 383.76 36.6524 385.86 43.4231 385.862C47.6978 385.862 52.7826 385.018 57.9598 382.267C58.3145 382.077 58.4544 381.625 58.2742 381.255C58.0924 380.885 57.6584 380.738 57.3036 380.927C52.363 383.554 47.519 384.358 43.4231 384.358C40.1817 384.358 37.4136 383.853 35.4627 383.348C34.4871 383.095 33.7159 382.843 33.192 382.656C32.9301 382.562 32.7301 382.485 32.5971 382.431L32.4496 382.371L32.4062 382.353C32.0394 382.19 31.6165 382.369 31.4609 382.751C31.3054 383.133 31.4762 383.573 31.8429 383.736" fill="#3BBCA9"/>
<path d="M59.9801 363.524C59.9801 363.526 59.996 363.657 60.0205 363.912C60.0926 364.676 60.2412 366.501 60.2412 368.74C60.2527 372.551 59.7768 377.582 57.9439 380.473C57.7261 380.821 57.8199 381.287 58.153 381.514C58.4861 381.741 58.9332 381.643 59.1509 381.296C61.278 377.862 61.6703 372.676 61.6833 368.74C61.6833 365.664 61.4136 363.363 61.4121 363.344C61.3631 362.93 61.004 362.637 60.6089 362.688C60.2138 362.738 59.9326 363.112 59.9801 363.524" fill="#3BBCA9"/>
<path d="M45.4628 396.84C45.5242 396.87 49.1514 398.856 54.2795 398.861C57.5516 398.862 61.4424 398.038 65.3275 395.364L65.427 395.283C65.5395 395.182 68.7899 391.862 68.7827 383.817C68.7827 382.21 68.6544 380.415 68.3487 378.419C68.2852 378.009 67.916 377.731 67.5223 377.795C67.1286 377.862 66.8619 378.247 66.9239 378.657C67.2195 380.577 67.3406 382.292 67.3406 383.817C67.3406 387.627 66.5807 390.241 65.8423 391.895C65.4731 392.722 65.1083 393.308 64.8415 393.683C64.7088 393.869 64.5992 394.003 64.5285 394.087L64.4492 394.175L64.4334 394.191L64.5011 394.263L64.4348 394.19L64.4334 394.191L64.5011 394.263L64.4348 394.19L64.9309 394.735L64.5343 394.108C60.9045 396.603 57.3252 397.356 54.2795 397.357C51.8972 397.357 49.8451 396.89 48.3957 396.424C47.6718 396.191 47.0979 395.958 46.7099 395.785C46.5152 395.699 46.3667 395.628 46.2701 395.579L46.1619 395.525L46.1327 395.51C45.7799 395.316 45.3446 395.458 45.1592 395.825C44.9744 396.194 45.1102 396.648 45.4628 396.84Z" fill="#3BBCA9"/>
<path d="M336.663 417.615H403.629C405.219 414.844 405.89 411.549 405.3 408.175C404.515 403.662 401.646 400.01 397.824 397.972C399.656 395.448 400.501 392.243 399.928 388.956C399.285 385.251 396.978 382.226 393.881 380.488C394.297 379.531 394.526 378.475 394.526 377.372C394.526 372.92 390.826 369.311 386.261 369.311C385.073 369.311 383.944 369.559 382.924 370.001L382.937 369.774C382.937 366.14 379.918 363.197 376.193 363.197C373.828 363.197 371.751 364.386 370.547 366.184C369.467 364.926 367.844 364.123 366.03 364.123C362.78 364.123 360.143 366.692 360.141 369.86C359.831 369.806 359.513 369.774 359.19 369.774C356.253 369.774 353.87 372.097 353.87 374.961C353.87 375.452 353.95 375.927 354.082 376.375C349.4 377.278 346.275 381.649 347.074 386.268C346.602 386.263 346.123 386.29 345.645 386.371C341.295 387.09 338.365 391.113 339.105 395.358C339.384 396.968 340.153 398.371 341.235 399.464C336.471 401.925 333.633 407.154 334.585 412.619C334.91 414.473 335.636 416.162 336.663 417.615" fill="#3AB092"/>
<path d="M529.978 451.875H5.46539L46.0543 419.762H486.522L529.978 451.875Z" fill="#5AC69E"/>
<path d="M58.3636 413.21H205.396C208.889 406.709 210.36 398.969 209.069 391.052C207.343 380.454 201.044 371.888 192.649 367.101C196.671 361.179 198.529 353.655 197.273 345.935C195.855 337.246 190.793 330.148 183.997 326.068C184.905 323.814 185.408 321.342 185.408 318.749C185.408 308.301 177.285 299.832 167.264 299.832C164.654 299.832 162.178 300.417 159.934 301.45C159.941 301.271 159.964 301.098 159.964 300.916C159.964 292.391 153.335 285.478 145.156 285.478C139.963 285.478 135.404 288.275 132.76 292.49C130.388 289.538 126.826 287.655 122.843 287.655C115.704 287.655 109.919 293.683 109.911 301.122C109.234 300.996 108.539 300.916 107.826 300.916C101.376 300.916 96.1466 306.369 96.1466 313.094C96.1466 314.247 96.3211 315.357 96.6095 316.415C86.3288 318.535 79.4687 328.792 81.2238 339.631C80.1898 339.619 79.1414 339.687 78.0857 339.874C68.5333 341.566 62.1058 351.006 63.7282 360.964C64.3411 364.744 66.0283 368.041 68.4006 370.603C57.9454 376.378 51.714 388.655 53.8022 401.486C54.5117 405.837 56.111 409.799 58.3636 413.21" fill="#3AB092"/>
<path d="M160.048 414.356H257.681C260 410.272 260.974 405.413 260.118 400.441C258.973 393.787 254.788 388.406 249.217 385.399C251.886 381.679 253.119 376.954 252.286 372.108C251.344 366.647 247.984 362.192 243.47 359.629C244.073 358.214 244.408 356.661 244.408 355.031C244.408 348.468 239.013 343.151 232.36 343.151C230.625 343.151 228.981 343.519 227.492 344.17L227.513 343.833C227.513 338.478 223.111 334.139 217.678 334.139C214.232 334.139 211.203 335.892 209.448 338.541C207.872 336.686 205.507 335.504 202.862 335.504C198.123 335.504 194.282 339.29 194.277 343.962C193.826 343.881 193.366 343.833 192.891 343.833C188.608 343.833 185.137 347.258 185.137 351.48C185.137 352.206 185.253 352.904 185.443 353.567C178.618 354.896 174.06 361.34 175.226 368.146C174.541 368.139 173.843 368.181 173.143 368.298C166.801 369.361 162.532 375.294 163.61 381.547C164.016 383.916 165.137 385.988 166.712 387.598C159.771 391.225 155.633 398.936 157.019 406.992C157.489 409.725 158.552 412.213 160.048 414.356Z" fill="#53C38D"/>
<path d="M382.652 416.252H479.675C481.978 412.237 482.949 407.461 482.096 402.573C480.957 396.034 476.802 390.745 471.263 387.791C473.918 384.136 475.142 379.491 474.313 374.728C473.379 369.361 470.037 364.98 465.554 362.461C466.154 361.074 466.486 359.543 466.486 357.945C466.486 351.496 461.124 346.267 454.512 346.267C452.79 346.267 451.155 346.628 449.676 347.267L449.695 346.938C449.695 341.673 445.32 337.407 439.923 337.407C436.497 337.407 433.487 339.132 431.744 341.737C430.178 339.914 427.829 338.75 425.2 338.75C420.491 338.75 416.671 342.474 416.667 347.063C416.22 346.986 415.76 346.938 415.291 346.938C411.035 346.938 407.583 350.304 407.583 354.452C407.583 355.165 407.7 355.851 407.889 356.503C401.105 357.811 396.578 364.144 397.736 370.834C397.054 370.827 396.36 370.867 395.667 370.985C389.363 372.028 385.119 377.856 386.191 384.005C386.597 386.335 387.709 388.37 389.275 389.953C382.376 393.518 378.264 401.095 379.642 409.012C380.112 411.699 381.165 414.145 382.652 416.252" fill="#53C38D"/>
<path d="M422.866 334.973L239.691 378.898L184.898 130.525L368.075 86.6025L422.866 334.973Z" fill="#FCDBEF"/>
<path d="M356.38 115.7L210.648 150.644L210.337 149.236L356.068 114.292L356.38 115.7Z" fill="#F79593"/>
<path d="M358.318 124.492L212.588 159.436L212.276 158.029L358.008 123.085L358.318 124.492Z" fill="#F79593"/>
<path d="M360.257 133.284L214.526 168.229L214.216 166.821L359.947 131.877L360.257 133.284" fill="#F79593"/>
<path d="M362.199 142.077L216.465 177.021L216.155 175.614L361.887 140.671L362.199 142.077Z" fill="#F79593"/>
<path d="M364.137 150.869L218.407 185.813L218.095 184.406L363.828 149.462L364.137 150.869Z" fill="#F79593"/>
<path d="M366.076 159.662L220.346 194.606L220.035 193.2L365.766 158.256L366.076 159.662Z" fill="#F79593"/>
<path d="M368.017 168.454L222.284 203.4L221.974 201.992L367.707 167.048L368.017 168.454" fill="#F79593"/>
<path d="M369.957 177.246L224.224 212.191L223.914 210.783L369.647 175.841L369.957 177.246Z" fill="#F79593"/>
<path d="M371.895 186.04L226.165 220.983L225.855 219.577L371.585 184.633L371.895 186.04Z" fill="#F79593"/>
<path d="M373.836 194.831L228.103 229.775L227.795 228.37L373.525 193.425L373.836 194.831Z" fill="#F79593"/>
<path d="M375.776 203.625L230.044 238.568L229.733 237.162L375.466 202.218L375.776 203.625Z" fill="#F79593"/>
<path d="M377.716 212.416L231.984 247.36L231.672 245.953L377.405 211.012L377.716 212.416" fill="#F79593"/>
<path d="M379.655 221.21L233.924 256.156L233.613 254.748L379.344 219.803L379.655 221.21Z" fill="#F79593"/>
<path d="M381.595 230.002L235.862 264.947L235.552 263.541L381.285 228.597L381.595 230.002Z" fill="#F79593"/>
<path d="M383.534 238.795L237.803 273.739L237.491 272.332L383.224 237.389L383.534 238.795Z" fill="#F79593"/>
<path d="M385.473 247.589L239.742 282.533L239.432 281.124L385.164 246.18L385.473 247.589Z" fill="#F79593"/>
<path d="M387.414 256.381L241.681 291.325L241.372 289.917L387.102 254.974L387.414 256.381" fill="#F79593"/>
<path d="M389.353 265.174L243.622 300.118L243.31 298.71L389.043 263.766L389.353 265.174" fill="#F79593"/>
<path d="M391.293 273.964L245.561 308.909L245.251 307.503L390.983 272.559L391.293 273.964" fill="#F79593"/>
<path d="M393.233 282.757L247.501 317.701L247.191 316.295L392.921 281.35L393.233 282.757" fill="#F79593"/>
<path d="M395.172 291.551L249.439 326.496L249.131 325.089L394.862 290.145L395.172 291.551" fill="#F79593"/>
<path d="M397.112 300.343L251.38 335.287L251.07 333.882L396.802 298.937L397.112 300.343Z" fill="#F79593"/>
<path d="M399.051 309.136L253.32 344.08L253.01 342.672L398.741 307.728L399.051 309.136Z" fill="#F79593"/>
<path d="M400.991 317.927L255.259 352.872L254.949 351.465L400.681 316.521L400.991 317.927" fill="#F79593"/>
<path d="M410.04 298.581L229.381 352.663L161.915 107.705L342.574 53.6219L410.04 298.581Z" fill="#F4F0D0"/>
<path d="M332.39 83.3294L188.662 126.356L188.278 124.969L332.007 81.9417L332.39 83.3294Z" fill="#BED0C8"/>
<path d="M334.777 92L191.048 135.028L190.666 133.641L334.396 90.6123L334.777 92Z" fill="#BED0C8"/>
<path d="M337.165 100.672L193.437 143.699L193.056 142.311L336.784 99.2844L337.165 100.672Z" fill="#BED0C8"/>
<path d="M339.556 109.344L195.826 152.371L195.444 150.983L339.172 107.957L339.556 109.344" fill="#BED0C8"/>
<path d="M341.943 118.016L198.214 161.043L197.832 159.656L341.561 116.629L341.943 118.016Z" fill="#BED0C8"/>
<path d="M344.331 126.689L200.602 169.714L200.219 168.328L343.947 125.301L344.331 126.689" fill="#BED0C8"/>
<path d="M346.719 135.359L202.991 178.386L202.61 177L346.338 133.971L346.719 135.359Z" fill="#BED0C8"/>
<path d="M349.109 144.031L205.38 187.058L204.996 185.67L348.726 142.644L349.109 144.031" fill="#BED0C8"/>
<path d="M351.497 152.703L207.768 195.73L207.386 194.343L351.113 151.316L351.497 152.703Z" fill="#BED0C8"/>
<path d="M353.883 161.374L210.156 204.401L209.773 203.013L353.501 159.988L353.883 161.374" fill="#BED0C8"/>
<path d="M356.273 170.046L212.543 213.075L212.162 211.687L355.891 168.659L356.273 170.046Z" fill="#BED0C8"/>
<path d="M358.661 178.718L214.932 221.745L214.55 220.356L358.279 177.331L358.661 178.718Z" fill="#BED0C8"/>
<path d="M361.051 187.39L217.321 230.416L216.938 229.03L360.667 186.003L361.051 187.39" fill="#BED0C8"/>
<path d="M363.437 196.061L219.709 239.088L219.328 237.702L363.057 194.673L363.437 196.061Z" fill="#BED0C8"/>
<path d="M365.825 204.733L222.097 247.76L221.716 246.374L365.445 203.346L365.825 204.733Z" fill="#BED0C8"/>
<path d="M368.215 213.404L224.486 256.431L224.104 255.045L367.831 212.018L368.215 213.404Z" fill="#BED0C8"/>
<path d="M370.603 222.076L226.875 265.103L226.491 263.717L370.219 220.688L370.603 222.076Z" fill="#BED0C8"/>
<path d="M372.991 230.75L229.261 273.773L228.881 272.387L372.61 229.362L372.991 230.75Z" fill="#BED0C8"/>
<path d="M375.378 239.42L231.651 282.446L231.269 281.059L374.997 238.034L375.378 239.42" fill="#BED0C8"/>
<path d="M377.769 248.091L234.039 291.119L233.657 289.732L377.385 246.705L377.769 248.091" fill="#BED0C8"/>
<path d="M380.156 256.763L236.427 299.791L236.045 298.402L379.773 255.377L380.156 256.763Z" fill="#BED0C8"/>
<path d="M382.544 265.434L238.815 308.464L238.434 307.074L382.163 264.049L382.544 265.434Z" fill="#BED0C8"/>
<path d="M384.932 274.109L241.203 317.134L240.823 315.745L384.551 272.72L384.932 274.109Z" fill="#BED0C8"/>
<path d="M387.321 282.778L243.593 325.806L243.209 324.42L386.939 281.392L387.321 282.778" fill="#BED0C8"/>
<path d="M530 390.993L242.239 477.139L134.778 86.9603L422.54 0.813301L530 390.993Z" fill="#F4F0D0"/>
<path d="M406.317 48.1342L177.379 116.669L176.77 114.458L405.708 45.9241L406.317 48.1342Z" fill="#BED0C8"/>
<path d="M410.119 61.9468L181.183 130.482L180.573 128.272L409.511 59.7351L410.119 61.9468" fill="#BED0C8"/>
<path d="M413.924 75.7593L184.987 144.294L184.377 142.083L413.315 73.5477L413.924 75.7593Z" fill="#BED0C8"/>
<path d="M417.729 89.5719L188.792 158.107L188.183 155.897L417.119 87.3618L417.729 89.5719Z" fill="#BED0C8"/>
<path d="M421.532 103.384L192.594 171.92L191.986 169.709L420.924 101.174L421.532 103.384" fill="#BED0C8"/>
<path d="M425.337 117.197L196.4 185.732L195.79 183.522L424.728 114.987L425.337 117.197" fill="#BED0C8"/>
<path d="M429.142 131.01L200.204 199.546L199.596 197.335L428.534 128.799L429.142 131.01" fill="#BED0C8"/>
<path d="M432.945 144.822L204.007 213.357L203.4 211.147L432.338 142.612L432.945 144.822Z" fill="#BED0C8"/>
<path d="M436.749 158.636L207.813 227.171L207.203 224.961L436.141 156.425L436.749 158.636" fill="#BED0C8"/>
<path d="M440.554 172.447L211.617 240.982L211.007 238.774L439.945 170.237L440.554 172.447Z" fill="#BED0C8"/>
<path d="M444.358 186.26L215.421 254.795L214.813 252.586L443.751 184.051L444.358 186.26" fill="#BED0C8"/>
<path d="M448.162 200.072L219.224 268.609L218.616 266.397L447.552 197.864L448.162 200.072Z" fill="#BED0C8"/>
<path d="M451.966 213.886L223.03 282.422L222.421 280.211L451.358 211.676L451.966 213.886Z" fill="#BED0C8"/>
<path d="M78.3352 156.304H76.4403C76.4403 152.997 73.869 150.316 70.6964 150.316C69.4028 150.316 68.2088 150.761 67.2483 151.514L67.2541 151.271C67.2541 146.196 63.3085 142.083 58.4414 142.083C53.7257 142.083 49.8753 145.945 49.6403 150.802C48.9452 150.489 48.178 150.316 47.3718 150.316C44.1992 150.316 41.6277 152.997 41.6277 156.304H39.7328C37.7121 156.304 36.0728 158.014 36.0728 160.12C36.0728 162.227 37.7121 163.936 39.7328 163.936H78.3352C80.357 163.936 81.9953 162.227 81.9953 160.12C81.9953 158.014 80.357 156.304 78.3352 156.304" fill="#C7ECEC"/>
<path d="M473.751 140.101H469.361C469.361 132.439 463.404 126.228 456.056 126.228C453.06 126.228 450.294 127.263 448.07 129.005C448.074 128.817 448.081 128.63 448.081 128.44C448.081 116.686 438.943 107.157 427.668 107.157C416.743 107.157 407.822 116.104 407.281 127.355C405.668 126.63 403.894 126.228 402.028 126.228C394.677 126.228 388.72 132.439 388.72 140.101H384.33C379.649 140.101 375.854 144.058 375.854 148.939C375.854 153.821 379.649 157.778 384.33 157.778H473.751C478.433 157.778 482.229 153.821 482.229 148.939C482.229 144.058 478.433 140.101 473.751 140.101" fill="#C7ECEC"/>
<path d="M354.998 17.2195H352.704C352.704 13.2157 349.59 9.96964 345.75 9.96964C344.184 9.96964 342.737 10.5094 341.574 11.4205L341.582 11.1243C341.582 4.98105 336.805 -1.5853e-05 330.911 -1.5853e-05C325.201 -1.5853e-05 320.539 4.67734 320.256 10.556C319.414 10.1786 318.484 9.96964 317.511 9.96964C313.667 9.96964 310.554 13.2157 310.554 17.2195H308.26C305.814 17.2195 303.829 19.2883 303.829 21.8397C303.829 24.3911 305.814 26.4584 308.26 26.4584H354.998C357.445 26.4584 359.43 24.3911 359.43 21.8397C359.43 19.2883 357.445 17.2195 354.998 17.2195" fill="#C7ECEC"/>
<path d="M426.604 383.139C425.71 383.139 424.804 382.888 423.985 382.363C414.662 376.37 417.216 360.818 417.539 359.068C418.057 356.24 420.674 354.386 423.385 354.93C426.091 355.47 427.866 358.193 427.354 361.015C426.597 365.252 426.828 371.95 429.232 373.497C431.579 375.007 432.309 378.216 430.861 380.663C429.918 382.261 428.28 383.139 426.604 383.139" fill="#EDE3AE"/>
<path d="M449.689 369.448C449.888 378.549 446.352 384.415 444.207 385.223C442.032 386.039 441.223 381.729 437.962 381.729C431.486 381.729 426.234 376.232 426.234 369.448C426.234 362.667 431.486 357.171 437.962 357.171C444.439 357.171 449.539 362.67 449.689 369.448Z" fill="#F35E80"/>
<path d="M442.025 357.769L441.807 357.796L441.833 358.025C441.909 358.086 449.454 364.408 445.401 372.587C444.505 374.396 441.787 376.889 437.276 374.772C435.268 373.829 433.66 371.724 433.274 369.531C433.032 368.148 433.141 366.083 435.045 364.094C435.754 363.357 437.496 362.479 439.156 362.839C440.32 363.088 441.166 363.887 441.673 365.211C441.732 365.369 441.787 365.535 441.837 365.707C442.209 366.981 441.746 368.591 440.809 369.293C440.209 369.741 439.161 370.03 437.579 368.856L437.364 368.893L437.4 369.119C438.294 369.783 439.041 370.003 439.636 370.003C440.252 370.003 440.705 369.768 440.991 369.556C442.026 368.779 442.541 367.011 442.134 365.613C442.082 365.434 442.023 365.258 441.96 365.094C441.422 363.678 440.473 362.788 439.218 362.522C437.612 362.174 435.723 362.932 434.827 363.866C432.825 365.954 432.711 368.13 432.968 369.589C433.378 371.918 435.019 374.067 437.147 375.068C438.425 375.668 439.564 375.912 440.568 375.912C443.276 375.912 444.987 374.128 445.677 372.738C449.845 364.324 442.104 357.834 442.025 357.769" fill="white"/>
<path d="M424.225 356.801C423.98 356.801 423.766 356.613 423.732 356.354C423.714 356.231 423.362 353.319 426.58 350.71C426.797 350.534 427.11 350.575 427.282 350.802C427.451 351.027 427.41 351.357 427.193 351.533C424.455 353.753 424.708 356.114 424.721 356.21C424.755 356.496 424.564 356.757 424.291 356.795L424.225 356.801" fill="#EDE3AE"/>
<path d="M421.026 356.801C420.859 356.801 420.693 356.712 420.599 356.554C420.524 356.425 418.804 353.4 421.153 349.879C421.312 349.644 421.623 349.586 421.85 349.749C422.075 349.915 422.131 350.241 421.974 350.476C419.992 353.445 421.437 355.984 421.453 356.008C421.596 356.255 421.522 356.575 421.286 356.727L421.026 356.801" fill="#EDE3AE"/>
<path d="M420.266 359.438C420.266 359.77 420.027 360.039 419.731 360.039C419.437 360.039 419.198 359.77 419.198 359.438C419.198 359.103 419.437 358.832 419.731 358.832C420.027 358.832 420.266 359.103 420.266 359.438Z" fill="#2E2D4E"/>
<path d="M423.222 359.438C423.222 359.77 422.983 360.039 422.687 360.039C422.393 360.039 422.154 359.77 422.154 359.438C422.154 359.103 422.393 358.832 422.687 358.832C422.983 358.832 423.222 359.103 423.222 359.438Z" fill="#2E2D4E"/>
<path d="M421.206 361.422C420.921 361.422 420.634 361.329 420.394 361.138L420.366 360.911L420.583 360.88C420.95 361.173 421.463 361.173 421.831 360.88L422.049 360.911L422.018 361.138C421.78 361.329 421.493 361.422 421.206 361.422" fill="#2E2D4E"/>
<path d="M425.637 361.508C425.637 362.107 425.171 362.591 424.597 362.591C424.021 362.591 423.556 362.107 423.556 361.508C423.556 360.908 424.021 360.421 424.597 360.421C425.171 360.421 425.637 360.908 425.637 361.508Z" fill="#F36671"/>
<path d="M419.476 361.508C419.476 362.107 419.009 362.591 418.435 362.591C417.859 362.591 417.394 362.107 417.394 361.508C417.394 360.908 417.859 360.421 418.435 360.421C419.009 360.421 419.476 360.908 419.476 361.508Z" fill="#F36671"/>
<path d="M423.822 415.592C421.943 403.926 412.215 395.035 400.492 395.035C388.769 395.035 379.041 403.926 377.163 415.592H423.822Z" fill="#B1CAC9"/>
<path d="M400.766 391.76C401.833 393.287 402.175 394.922 401.529 395.413C400.883 395.907 399.493 395.066 398.424 393.539C397.355 392.013 397.012 390.374 397.661 389.884C398.307 389.393 399.697 390.229 400.766 391.76Z" fill="#15AE6B"/>
<path d="M403.533 391.48C403.171 393.809 402.077 395.562 401.092 395.395C400.104 395.23 399.599 393.205 399.963 390.879C400.325 388.547 401.419 386.797 402.404 386.964C403.391 387.129 403.895 389.153 403.533 391.48Z" fill="#0FA15A"/>
<path d="M465.462 415.135C465.476 414.703 465.493 414.273 465.493 413.839C465.493 393.865 449.96 377.674 430.802 377.674C411.642 377.674 396.109 393.865 396.109 413.839C396.109 414.273 396.127 414.703 396.141 415.135H465.462" fill="#CDDEE0"/>
<path d="M486.522 416.996C486.522 419.09 484.324 420.785 481.613 420.785H46.0544C43.3436 420.785 41.1462 419.09 41.1462 416.996C41.1462 414.905 43.3436 413.21 46.0544 413.21H481.613C484.324 413.21 486.522 414.905 486.522 416.996Z" fill="#60B2B6"/>
<path d="M305.264 289.575C301.112 280.44 299.044 269.525 299.117 257.136C299.148 251.519 299.621 246.124 300.289 241.232L312.915 233.689L317.813 242.606C317.139 247.19 316.65 252.335 316.642 257.647C316.615 278.537 323.922 292.357 338.359 298.719C342.817 300.688 344.903 306.049 343.017 310.695C342.241 312.609 340.913 314.103 339.308 315.061C337.014 316.432 334.154 316.709 331.531 315.551C319.532 310.263 310.695 301.523 305.264 289.575" fill="#F46F69"/>
<path d="M305.264 289.575C301.113 280.44 294.045 269.182 294.118 256.789C294.183 245.715 300.945 235.825 302.572 228.69C304.712 229.195 306.89 229.518 309.015 230.114C312.458 231.077 315.401 233.121 318.137 235.454C318.614 235.86 319.081 236.276 319.544 236.699C319.306 236.705 319.068 236.711 318.83 236.711C317.687 242.526 316.653 249.912 316.643 257.647C316.622 272.529 320.327 283.817 327.676 291.384C328.975 292.72 315.642 304.763 315.642 304.763C311.388 300.484 307.919 295.413 305.264 289.575" fill="#1D94DA"/>
<path d="M347.064 299.53C342.535 298.814 336.258 296.279 336.258 296.279L331.63 317.381L344.888 322.061C347.803 323.601 345.826 330.126 345.469 332.782C344.939 336.732 348.155 340.294 352.04 340.909C353.12 341.079 354.178 340.999 355.171 340.724L358.358 318.856L360.425 302.648C355.066 300.678 351.593 300.25 347.064 299.53Z" fill="#A85031"/>
<path d="M361.633 301.838C362.421 301.964 362.961 302.731 362.842 303.55L357.493 340.25C357.373 341.073 356.638 341.637 355.849 341.513C355.063 341.387 354.522 340.62 354.642 339.798L359.992 303.101C360.109 302.278 360.846 301.714 361.633 301.838" fill="#8D3A27"/>
<path d="M274.905 289.787L242.929 226.257L264.659 214.369L296.635 277.899L274.905 289.787Z" fill="#27495A"/>
<path d="M298.733 260.436L371.587 396.061C378.6 409.115 374.132 425.62 361.613 432.933C349.093 440.241 333.258 435.587 326.247 422.535C326.029 422.129 325.785 421.639 325.589 421.227L259.93 281.664C254.599 270.335 264.604 262.515 275.473 256.957C285.963 251.591 293.074 249.954 298.733 260.436Z" fill="#2E596C"/>
<path d="M372.68 398.353C370.939 402.029 368.806 405.503 366.251 408.631C359.626 416.737 350.605 422.299 340.775 425.068C337.076 426.112 333.358 426.865 329.6 427.412C337.541 436.633 350.807 439.24 361.613 432.933C373.411 426.044 378.053 410.988 372.68 398.353" fill="#27495A"/>
<path d="M193.787 223.423C147.571 218.45 111.107 178.206 110.172 128.539C109.162 74.8061 150.122 30.3915 201.661 29.3376C202.284 29.3255 202.908 29.318 203.528 29.318C224.831 29.318 244.523 36.7889 260.274 49.3911L134.778 86.9603L170.816 217.812C178.093 220.648 185.793 222.563 193.787 223.423" fill="#B6E6E4"/>
<path d="M203.453 223.94C200.19 223.94 196.967 223.766 193.787 223.423C185.793 222.563 178.093 220.648 170.816 217.812L134.778 86.9603L260.274 49.3911C271.038 58.0031 279.96 69.0132 286.295 81.6711L176.77 114.458L177.379 116.669L287.31 83.7594C289.015 87.3768 290.512 91.1235 291.784 94.98L180.573 128.272L181.183 130.482L292.476 97.1645C293.634 100.973 294.574 104.885 295.281 108.883L184.377 142.083L184.987 144.294L295.657 111.164C296.268 115.16 296.648 119.239 296.78 123.387L188.183 155.897L188.792 158.107L296.828 125.765C296.831 126.072 296.832 126.377 296.832 126.686C296.831 130.691 296.597 134.647 296.143 138.529L191.986 169.709L192.594 171.92L295.82 141.018C295.17 145.599 294.211 150.078 292.968 154.432L195.79 183.522L196.4 185.732L292.177 157.061C290.615 162.004 288.682 166.782 286.413 171.345L199.596 197.335L200.204 199.546L284.948 174.176C281.934 179.775 278.402 185.038 274.421 189.886L203.4 211.147L204.007 213.357L271.656 193.107C264.261 201.347 255.503 208.25 245.747 213.422L211.932 223.546C209.748 223.749 207.548 223.876 205.324 223.921C204.701 223.934 204.074 223.94 203.453 223.94Z" fill="#B3E1C3"/>
<path d="M177.379 116.669L176.77 114.458L286.295 81.6711C286.641 82.3627 286.98 83.0573 287.31 83.7594L177.379 116.669" fill="#8AC3BC"/>
<path d="M181.183 130.482L180.573 128.272L291.784 94.9799C292.021 95.7031 292.252 96.4323 292.476 97.1645L181.183 130.482" fill="#8AC3BC"/>
<path d="M184.987 144.294L184.377 142.083L295.281 108.883C295.415 109.639 295.54 110.401 295.657 111.164L184.987 144.294Z" fill="#8AC3BC"/>
<path d="M188.792 158.107L188.183 155.897L296.78 123.387C296.793 123.832 296.805 124.275 296.814 124.722C296.819 125.069 296.825 125.418 296.828 125.765L188.792 158.107Z" fill="#8AC3BC"/>
<path d="M192.594 171.92L191.986 169.709L296.143 138.529C296.045 139.361 295.938 140.191 295.82 141.018L192.594 171.92Z" fill="#8AC3BC"/>
<path d="M196.4 185.732L195.79 183.522L292.968 154.432C292.715 155.315 292.453 156.187 292.177 157.061L196.4 185.732" fill="#8AC3BC"/>
<path d="M200.204 199.546L199.596 197.335L286.413 171.345C285.939 172.3 285.451 173.24 284.948 174.176L200.204 199.546" fill="#8AC3BC"/>
<path d="M204.007 213.357L203.4 211.147L274.421 189.886C273.524 190.979 272.599 192.056 271.656 193.107L204.007 213.357" fill="#8AC3BC"/>
<path d="M211.932 223.546L245.747 213.422C235.445 218.884 224.029 222.413 211.932 223.546Z" fill="#8AC3BC"/>
<path d="M167.029 77.0208C167.141 82.9505 162.622 87.8504 156.936 87.9661C151.249 88.0834 146.549 83.3715 146.438 77.4432C146.326 71.515 150.846 66.6151 156.532 66.4978C162.218 66.3821 166.919 71.094 167.029 77.0208Z" fill="white"/>
<path d="M150.41 177.415C148.767 177.449 147.134 176.683 146.081 175.202C135.714 160.643 131.257 142.394 133.191 122.429C134.636 107.524 139.108 96.9015 139.297 96.4564C140.477 93.69 143.583 92.4436 146.238 93.6735C148.89 94.9018 150.084 98.1373 148.912 100.902C148.845 101.059 144.849 110.672 143.623 123.871C142.016 141.178 145.683 156.249 154.524 168.666C156.256 171.097 155.769 174.531 153.437 176.337C152.524 177.042 151.466 177.394 150.41 177.415" fill="white"/>
<path d="M201.977 37.918C155.335 38.8712 118.133 79.2099 119.049 127.837C119.964 176.465 158.655 215.25 205.296 214.295C251.938 213.342 289.14 173.004 288.226 124.376C287.31 75.7488 248.619 36.9633 201.977 37.918ZM205.761 238.962C176.847 239.553 149.444 228.371 128.597 207.473C107.75 186.576 95.9577 158.465 95.3895 128.321C94.8228 98.1764 105.549 69.6055 125.593 47.8711C145.637 26.1381 172.598 13.8441 201.512 13.2517C230.426 12.6608 257.831 23.8423 278.676 44.7408C299.523 65.6378 311.317 93.7471 311.884 123.892C312.45 154.037 301.724 182.608 281.682 204.341C261.636 226.075 234.673 238.371 205.761 238.962" fill="#EF2F51"/>
<path d="M268.051 176.746C268.035 176.719 266.502 173.877 262.737 170.102C259.247 166.605 259.139 160.819 262.493 157.182C265.847 153.544 271.395 153.431 274.886 156.928C280.666 162.723 283.117 167.344 283.549 168.213L267.996 176.639L268.051 176.746" fill="#F25360"/>
<path d="M289.279 313.696C283.901 306.995 279.797 300.438 277.019 294.191C273.528 298.023 267.843 299.973 263.38 301.723C262.719 301.982 262.056 302.241 261.393 302.499C264.819 310.039 269.646 317.713 275.838 325.424C277.612 327.635 280.173 328.749 282.736 328.696C284.662 328.657 286.591 327.958 288.184 326.57C291.896 323.33 292.386 317.566 289.279 313.696" fill="#F57F68"/>
<path d="M322.637 231.771L284.753 234.039C274.757 235.505 263.612 244.755 258.012 259.931C254.719 268.865 254.325 279.124 256.876 289.608C258.374 295.765 260.884 302.053 264.356 308.409C264.356 308.409 281.177 302.262 279.645 299.468C272.862 287.091 270.977 275.701 274.372 266.489C276.019 262.028 278.528 258.421 281.552 256.419C283.627 255.042 286.102 255.109 288.337 255.553C290.729 256.029 310.431 262.174 319.717 250.056C324.501 243.813 322.637 231.771 322.637 231.771Z" fill="#17B3D4"/>
<path d="M228.356 269.895C224.316 269.977 220.225 268.881 216.229 266.62C214.695 265.781 209.69 262.607 205.945 255.235C201.08 245.66 200.337 233.304 203.733 218.511C204.861 213.604 209.591 210.577 214.297 211.753C219.005 212.927 221.908 217.857 220.779 222.766C216.053 243.346 223.127 249.516 224.326 250.393C224.424 250.435 224.285 250.385 224.554 250.537C227.163 252.029 228.651 251.717 229.873 251.16C235.79 248.45 241.555 235.965 243.441 227.994C247.647 210.229 251.444 197.559 254.727 190.339C256.105 187.311 259.766 179.267 267.181 180.327C271.976 181.013 275.331 185.621 274.674 190.621C274.347 193.113 273.084 195.233 271.306 196.646C270.166 198.683 266.581 206.512 260.46 232.373C260.19 233.507 253.698 260.211 236.92 267.892C234.13 269.17 231.257 269.836 228.356 269.895" fill="#F57F68"/>
<path d="M267.181 180.327C259.766 179.267 256.105 187.311 254.727 190.339C251.444 197.559 247.647 210.229 243.441 227.994C241.555 235.965 235.79 248.45 229.873 251.16C228.651 251.717 227.163 252.029 224.554 250.537C224.285 250.385 224.424 250.435 224.326 250.393C223.584 249.85 220.59 247.271 219.54 240.503C217.126 243.117 210.9 245.95 202.463 244.729C203.168 248.528 204.322 252.041 205.945 255.235C209.69 262.607 214.695 265.781 216.229 266.62C220.225 268.881 224.316 269.977 228.356 269.895C231.257 269.836 234.13 269.17 236.92 267.892C253.698 260.211 260.19 233.507 260.46 232.373C266.581 206.512 270.166 198.683 271.306 196.646C273.084 195.233 274.347 193.113 274.674 190.621C275.331 185.621 271.976 181.013 267.181 180.327" fill="#FBC338"/>
<path d="M305.192 140.659H326.127C323.891 131.16 319.336 120.374 312.282 107.853C309.827 103.502 307.192 92.9517 303.02 95.5077C298.847 98.0636 291.067 99.8603 297.167 117.111C300.686 127.058 303.31 134.719 305.192 140.659Z" fill="#F57F68"/>
<path d="M321.221 125.884C321.221 125.884 319.297 128.186 314.277 128.843C302.178 130.431 300.204 125.767 300.524 126.693C308.914 150.941 310.34 157.884 308.418 160.854C304.04 167.618 290.614 167.211 286.247 166.536C281.47 165.773 277.002 169.182 276.259 174.161C275.527 179.06 278.675 183.654 283.321 184.55L283.571 184.594C286.4 185.054 311.537 188.577 322.898 171.15C327.327 164.358 328.73 155.679 327.067 145.353C326.114 139.423 324.18 132.975 321.221 125.884" fill="#F9AF3E"/>
<path d="M295.397 322.64H295.399L295.389 322.611C294.47 319.349 293.115 316.921 291.944 315.276C289.165 310.559 286.025 306.733 286.025 306.733L269.871 317.877L274.957 324.171C273.995 327.43 267.494 326.502 264.92 326.587C261.097 326.71 258.276 330.622 258.354 334.715C258.376 335.854 258.63 336.926 259.058 337.902L280.27 337.467L295.941 336.842C296.897 331.004 296.421 326.299 295.397 322.64" fill="#A85031"/>
<path d="M296.912 337.946C296.928 338.777 296.296 339.461 295.498 339.478L259.899 340.207C259.104 340.225 258.445 339.563 258.429 338.732C258.413 337.902 259.046 337.218 259.842 337.2L295.441 336.471C296.238 336.454 296.897 337.114 296.912 337.946" fill="#8D3A27"/>
<path d="M249.655 145.218C249.306 147.67 247.119 149.361 244.768 148.999C242.416 148.635 240.794 146.354 241.143 143.903L241.459 141.684C241.806 139.235 243.995 137.542 246.346 137.906C248.696 138.27 250.32 140.551 249.971 143.001L249.655 145.218" fill="#F3656A"/>
<path d="M246.36 127.914C240.595 127.368 240.703 138.223 244.024 141.185C250.114 146.62 255.773 133.071 251.788 128.154L246.36 127.914" fill="#27495A"/>
<path d="M278.202 154.966C276.819 164.68 268.146 171.389 258.827 169.948C249.51 168.508 243.077 159.465 244.458 149.751L246.042 138.622C247.423 128.908 256.097 122.199 265.415 123.639C274.731 125.08 281.164 134.123 279.784 143.837L278.202 154.966" fill="#F57F68"/>
<path d="M284.564 127.818C281.695 120.592 274.102 112.736 264.829 112.478C257.661 112.278 245.434 123.206 239.67 118.633C240.554 134.141 260.204 142.585 273.007 136.394C273.633 141.157 276.392 147.11 279.608 146.553C283.539 145.87 287.434 135.043 284.564 127.818Z" fill="#27495A"/>
<path d="M219.063 221.795C217.716 221.822 216.502 220.848 216.22 219.419C215.905 217.82 216.889 216.256 218.422 215.919C218.663 215.864 223.484 214.691 223.905 210.131C224.057 208.498 225.45 207.301 227.014 207.459C228.581 207.617 229.727 209.068 229.577 210.701C228.748 219.673 219.955 221.655 219.582 221.733C219.407 221.772 219.234 221.792 219.063 221.795" fill="#F57F68"/>
<path d="M217.605 219.882C216.033 219.914 214.734 218.61 214.702 216.972C214.52 207.36 215.818 202.741 219.04 201.528C221.441 200.624 223.713 202.168 224.933 203.76C225.914 205.043 225.711 206.912 224.482 207.934C223.442 208.799 222.003 208.781 220.989 207.984C220.669 209.263 220.303 211.845 220.398 216.854C220.428 218.495 219.178 219.851 217.605 219.882Z" fill="#F57F68"/>
<path d="M212.549 219.186C211.236 219.213 210.038 218.286 209.724 216.899C208.654 212.165 209.011 208.832 210.82 206.706C212.203 205.082 214.119 204.675 215.341 204.817C216.904 205.002 218.029 206.471 217.853 208.101C217.688 209.615 216.464 210.738 215.033 210.738C214.894 211.057 214.533 212.284 215.269 215.534C215.629 217.131 214.682 218.729 213.149 219.107C212.95 219.156 212.748 219.182 212.549 219.186" fill="#F57F68"/>
<path d="M206.441 220.681C205.079 220.709 203.854 219.711 203.589 218.266C202.06 209.874 206.639 208.134 207.167 207.961C208.667 207.474 210.264 208.351 210.732 209.917C211.154 211.335 210.505 212.836 209.262 213.466C209.135 213.685 208.726 214.632 209.186 217.158C209.48 218.768 208.466 220.324 206.92 220.63C206.76 220.663 206.599 220.679 206.441 220.681" fill="#F57F68"/>
<path d="M305.974 107.808C305.707 107.874 305.429 107.901 305.14 107.881C303.57 107.779 302.379 106.37 302.475 104.735C302.664 101.55 302.703 92.2105 300.647 87.2806C300.022 85.7771 300.684 84.0285 302.126 83.3745C303.568 82.719 305.247 83.4121 305.873 84.9141C308.894 92.1699 308.193 104.578 308.161 105.101C308.082 106.44 307.164 107.515 305.974 107.808" fill="#F57F68"/>
<path d="M308.709 105.629C308.033 105.796 307.301 105.709 306.652 105.325C305.289 104.521 304.804 102.723 305.563 101.298C305.74 100.955 309.309 93.7877 304.193 83.3053C303.479 81.844 304.039 80.0563 305.439 79.3121C306.842 78.5679 308.558 79.1512 309.272 80.6126C315.854 94.0989 310.753 103.796 310.534 104.201C310.126 104.951 309.454 105.446 308.709 105.629" fill="#F57F68"/>
<path d="M299.991 112.366C299.718 112.446 299.431 112.484 299.134 112.473C297.998 112.437 296.3 111.792 294.939 110.098C292.572 107.136 291.912 101.896 292.978 94.5274C293.21 92.9051 294.663 91.788 296.218 92.0331C297.774 92.2767 298.846 93.7907 298.609 95.4129C297.278 104.617 299.355 106.387 299.608 106.563C301.039 106.764 302.118 108.063 302.072 109.598C302.031 110.929 301.157 112.026 299.991 112.366" fill="#F57F68"/>
<path d="M281.227 234.746C281.227 234.746 278.085 215.283 254.259 191.4C254.259 191.4 259.547 172.274 278.733 167.311C280.571 166.836 282.534 166.214 284.642 166.304C302.974 167.089 312.326 171.166 322.637 231.771C322.637 231.771 306.096 246.43 281.227 234.746Z" fill="#FBC338"/>
<path d="M250.558 146.965C250.271 147.972 249.355 148.576 248.515 148.315C247.674 148.055 247.226 147.026 247.512 146.019C247.801 145.012 248.715 144.406 249.556 144.669C250.395 144.929 250.845 145.957 250.558 146.965Z" fill="#27495A"/>
<path d="M260.516 150.875C260.277 151.895 259.393 152.547 258.54 152.329C257.688 152.113 257.19 151.108 257.43 150.087C257.669 149.067 258.555 148.415 259.407 148.632C260.258 148.85 260.755 149.853 260.516 150.875" fill="#27495A"/>
<path d="M251.235 154.184L250.971 154.093L248.996 152.553C248.872 152.457 248.806 152.296 248.825 152.135C248.842 151.974 248.942 151.834 249.084 151.768L252.101 150.399C252.323 150.298 252.581 150.405 252.678 150.635C252.775 150.868 252.674 151.135 252.452 151.238L250.126 152.293L251.497 153.362C251.69 153.512 251.729 153.798 251.585 154.001C251.498 154.121 251.367 154.184 251.235 154.184" fill="#27495A"/>
<path d="M262.724 144.365C262.522 144.365 262.34 144.219 262.295 144.006C262.101 143.062 261.165 142.472 260.207 142.681C259.834 142.765 259.502 142.959 259.248 143.245C259.08 143.428 258.804 143.437 258.628 143.268C258.451 143.095 258.442 142.806 258.607 142.621C258.984 142.2 259.473 141.911 260.023 141.79C261.45 141.462 262.855 142.376 263.152 143.813C263.204 144.06 263.053 144.302 262.816 144.356L262.724 144.365Z" fill="#27495A"/>
<path d="M251.563 141.268C251.393 141.268 251.23 141.164 251.16 140.99C250.976 140.537 250.704 140.215 250.372 140.062C250.032 139.901 249.641 139.921 249.205 140.112C248.855 140.267 248.562 140.522 248.363 140.851C248.235 141.065 247.965 141.13 247.759 140.994C247.554 140.859 247.494 140.576 247.624 140.364C247.918 139.877 248.347 139.498 248.865 139.27C249.521 138.98 250.166 138.965 250.728 139.228C251.268 139.477 251.696 139.963 251.967 140.635C252.061 140.867 251.957 141.136 251.734 141.233L251.563 141.268" fill="#27495A"/>
<path d="M284.391 151.863C284.042 154.314 281.855 156.005 279.504 155.641C277.153 155.279 275.53 152.998 275.879 150.546L276.194 148.328C276.542 145.878 278.731 144.185 281.082 144.549C283.432 144.912 285.055 147.193 284.706 149.644L284.391 151.863" fill="#F57F68"/>
<path d="M256.13 159.606C255.254 159.606 254.401 159.299 253.708 158.719C253.519 158.56 253.49 158.272 253.641 158.077C253.793 157.88 254.068 157.848 254.257 158.006C254.962 158.599 255.881 158.823 256.785 158.62C257.687 158.418 258.438 157.818 258.846 156.976C258.956 156.751 259.221 156.662 259.436 156.775C259.651 156.889 259.737 157.164 259.628 157.39C259.1 158.478 258.131 159.253 256.97 159.513C256.691 159.576 256.409 159.606 256.13 159.606Z" fill="#27495A"/>
<path d="M213.561 391.464C208.514 359.324 193.063 342.922 180.99 334.824C167.895 326.041 156.096 324.916 154.794 324.816C151.874 324.59 149.189 325.891 147.439 328.068H141.59C139.629 325.63 136.507 324.325 133.292 324.942C132.883 325.019 123.114 326.919 112.507 331.843C97.2469 338.929 87.5127 348.972 84.3574 360.889C81.0507 373.374 89.7898 385.376 99.0424 398.082C99.1851 398.279 99.3322 398.482 99.4764 398.678C101.405 397.777 103.271 396.726 105.037 395.501C107.852 393.551 111.489 390.864 113.331 387.484C113.223 387.335 113.111 387.182 113.003 387.034C109.179 381.778 105.565 376.815 103.305 372.496C100.94 367.978 101.136 366.192 101.253 365.751C104.271 354.352 120.978 347.234 131.158 344.241C133.344 343.932 147.024 342.127 157.103 343.707C166.251 345.965 190.157 355.529 196.263 394.417C196.968 398.899 200.686 402.078 204.903 402.078C205.373 402.078 205.85 402.041 206.329 401.958C211.105 401.142 214.343 396.443 213.561 391.464" fill="white"/>
<path d="M150.534 271.499C150.534 271.499 149.395 275.336 141.42 275.336C133.444 275.336 133.111 269.507 133.111 269.507L133.105 269.558C133.336 267.102 132.93 263.742 132.296 262.721C128.417 259.896 127.383 254.345 130.006 250.203C132.672 245.989 138.109 244.828 142.148 247.61C151.822 254.267 150.831 268.68 150.534 271.499" fill="#F68182"/>
<path d="M154.983 234.537C155.894 236.691 154.957 239.208 152.89 240.16C150.824 241.109 148.41 240.133 147.497 237.978L146.674 236.027C145.762 233.872 146.698 231.356 148.765 230.405C150.833 229.455 153.247 230.432 154.158 232.585L154.983 234.537Z" fill="#F68182"/>
<path d="M122.977 249.249C123.887 251.403 122.951 253.92 120.883 254.872C118.816 255.823 116.402 254.845 115.491 252.69L114.666 250.74C113.755 248.584 114.692 246.069 116.759 245.117C118.827 244.168 121.241 245.143 122.152 247.299L122.977 249.249Z" fill="#F68182"/>
<path d="M183.097 288.604C178.168 288.604 173.171 287.388 168.746 286.31C166.171 285.684 163.739 285.095 161.713 284.818C156.914 284.166 153.529 279.583 154.155 274.575C154.78 269.571 159.178 266.052 163.977 266.697C166.87 267.087 169.85 267.812 172.729 268.514C174.5 268.946 177.217 269.607 179.709 270.015C182.233 270.427 186.288 269.361 186.702 265.282C187.321 259.182 183.222 253.036 175.054 244.4C173.752 243.023 168.7 237.603 167.238 236.988C156.027 232.279 162.602 226.092 167.238 224.645C175.115 222.19 186.754 231.428 188.617 233.433C197.984 243.51 205.497 253.735 204.134 267.196C203.318 275.274 200.416 281.214 195.513 284.85C191.722 287.661 187.436 288.604 183.097 288.604" fill="#F79490"/>
<path d="M195.179 284.775C190.235 280.604 185.837 275.569 182.513 269.882C181.535 270.122 180.54 270.15 179.709 270.015C177.217 269.607 174.5 268.946 172.729 268.514C169.85 267.812 166.87 267.087 163.977 266.697C159.178 266.052 154.78 269.571 154.155 274.575C153.529 279.583 156.914 284.166 161.713 284.818C163.739 285.095 166.171 285.684 168.746 286.31C173.171 287.388 178.168 288.604 183.097 288.604C187.387 288.604 191.625 287.678 195.385 284.941L195.179 284.775Z" fill="#1D94DA"/>
<path d="M121.718 297.684C119.37 297.684 117.028 296.702 115.305 294.767C114.818 294.218 103.278 281.124 96.3226 261.529C86.8292 234.783 90.283 208.845 106.313 186.521C109.215 182.482 114.817 181.515 117.836 185.46C119.592 187.759 117.015 194.025 114.917 200.985C113.044 207.196 108.275 225.941 108.054 230.041C107.614 238.201 109.545 245.933 112.578 254.666C118.245 270.988 128.066 282.237 128.164 282.348C131.435 286.057 131.216 291.833 127.667 295.251C125.981 296.878 123.846 297.684 121.718 297.684" fill="#F79490"/>
<path d="M128.164 282.348C128.072 282.243 119.232 272.109 113.484 257.136C109.301 261.4 104.195 265.029 98.6645 267.513C105.595 283.746 114.868 294.277 115.305 294.767C117.028 296.702 119.37 297.684 121.718 297.684C123.847 297.684 125.981 296.878 127.667 295.251C131.216 291.833 131.435 286.057 128.164 282.348" fill="#1D94DA"/>
<path d="M119.259 397.691L119.251 397.663C118.394 394.379 117.084 391.927 115.945 390.259C113.256 385.484 110.188 381.596 110.188 381.596L93.8277 392.409L98.7943 398.801C97.7719 402.041 91.2882 400.981 88.7126 401.012C84.8896 401.059 81.9953 404.912 81.9953 409.006C81.9953 410.145 82.2303 411.223 82.6399 412.206H103.856L119.536 411.901C120.602 406.084 120.215 401.369 119.259 397.691" fill="#FBC338"/>
<path d="M120.485 413.022C120.485 413.854 119.84 414.526 119.043 414.526H83.4388C82.6413 414.526 81.9953 413.854 81.9953 413.022C81.9953 412.195 82.6413 411.519 83.4388 411.519H119.043C119.84 411.519 120.485 412.195 120.485 413.022" fill="#F9AF3E"/>
<path d="M195.308 398.402C195.308 393.627 193.849 386.773 193.849 386.773L214.553 385.173L216.999 399.542C218.021 402.781 224.505 401.724 227.081 401.752C230.905 401.8 233.8 405.652 233.8 409.746C233.8 410.886 233.564 411.962 233.153 412.947H211.937L196.257 412.642C195.193 406.823 195.308 403.177 195.308 398.402" fill="#FBC338"/>
<path d="M195.308 413.766C195.308 414.593 195.953 415.27 196.751 415.27H232.356C233.152 415.27 233.8 414.593 233.8 413.766C233.8 412.935 233.152 412.263 232.356 412.263H196.751C195.953 412.263 195.308 412.935 195.308 413.766" fill="#F9AF3E"/>
<path d="M151.515 240.304C155.126 248.846 151.414 258.824 143.221 262.592C135.027 266.357 125.456 262.485 121.843 253.944L117.705 244.156C114.092 235.615 117.807 225.638 126 221.87C134.194 218.104 143.763 221.977 147.376 230.518L151.515 240.304" fill="#F79490"/>
<path d="M166.658 235.904C159.752 235.904 156.953 230.565 153.998 224.928L153.532 224.043C152.775 222.605 153.277 220.798 154.656 220.009C156.034 219.219 157.766 219.743 158.525 221.181L158.996 222.08C162.25 228.284 163.624 230.261 167.443 229.93C169.012 229.789 170.387 231.007 170.519 232.641C170.648 234.275 169.485 235.711 167.917 235.846C167.483 235.887 167.063 235.904 166.658 235.904" fill="#F79490"/>
<path d="M169.489 231.688C163.545 231.688 160.718 226.645 160.264 222.993C160.063 221.366 161.164 219.878 162.724 219.666C164.276 219.46 165.698 220.592 165.911 222.205C166.086 223.398 166.854 226.111 170.206 225.701C171.768 225.51 173.184 226.675 173.367 228.303C173.551 229.932 172.435 231.408 170.873 231.599C170.395 231.659 169.933 231.688 169.489 231.688Z" fill="#F79490"/>
<path d="M114.92 190.268C114.719 190.268 114.519 190.246 114.316 190.201C106.547 188.453 104.857 180.871 105.047 177.105C105.129 175.468 106.465 174.205 108.043 174.297C109.607 174.384 110.81 175.771 110.736 177.401C110.715 178.018 110.67 183.304 115.517 184.396C117.056 184.74 118.032 186.32 117.7 187.924C117.413 189.315 116.232 190.267 114.92 190.268" fill="#F79490"/>
<path d="M110.79 191.552C110.524 191.552 110.255 191.513 109.988 191.432C98.7078 187.983 99.7057 173.346 99.7533 172.725C99.8787 171.09 101.253 169.875 102.821 170.004C104.387 170.135 105.555 171.563 105.431 173.196C105.399 173.656 104.776 183.648 111.59 185.732C113.1 186.194 113.964 187.843 113.521 189.417C113.158 190.712 112.021 191.552 110.79 191.552Z" fill="#F79490"/>
<path d="M165.693 266.85C165.693 266.85 159.197 265.88 150.652 265.725C150.652 265.725 150.534 266.48 150.148 267.337C149.435 268.917 147.788 271.108 143.985 271.502C136.556 272.267 133.762 268.368 133.141 266.976C131.478 267.278 129.117 267.648 127.569 268.098C125.286 268.755 121.742 271.225 117.836 266.62C113.616 261.646 112.242 278.601 113.649 286.263C115.54 296.553 115.338 305.908 117.272 330.616C117.272 330.616 153.919 342.23 171.884 329.893C171.884 329.893 175.772 285.579 165.693 266.85" fill="#1D94DA"/>
<path d="M140.359 238.703C140.765 239.664 141.747 240.145 142.549 239.775C143.351 239.405 143.671 238.324 143.264 237.365C142.856 236.403 141.874 235.923 141.072 236.293C140.271 236.663 139.952 237.742 140.359 238.703Z" fill="#27495A"/>
<path d="M128.952 244.128C129.358 245.087 130.339 245.57 131.142 245.198C131.944 244.828 132.264 243.749 131.856 242.788C131.449 241.827 130.467 241.346 129.665 241.716C128.864 242.086 128.542 243.167 128.952 244.128" fill="#27495A"/>
<path d="M125.779 239.554H125.763C125.521 239.545 125.332 239.333 125.341 239.08C125.365 238.365 125.666 237.705 126.188 237.219C126.705 236.738 127.377 236.476 128.082 236.515C128.644 236.537 129.174 236.73 129.615 237.076C129.808 237.228 129.847 237.514 129.703 237.715C129.557 237.918 129.282 237.956 129.089 237.805C128.791 237.574 128.432 237.443 128.05 237.428C127.577 237.412 127.119 237.577 126.771 237.902C126.429 238.219 126.232 238.649 126.217 239.114C126.209 239.36 126.014 239.554 125.779 239.554" fill="#27495A"/>
<path d="M137.846 234.269H137.831C137.588 234.262 137.399 234.048 137.408 233.797C137.433 233.082 137.734 232.42 138.256 231.936C138.772 231.455 139.44 231.193 140.149 231.232C140.71 231.253 141.241 231.446 141.682 231.792C141.876 231.943 141.915 232.229 141.77 232.432C141.623 232.634 141.348 232.673 141.156 232.522C140.859 232.289 140.5 232.16 140.118 232.145C139.633 232.125 139.186 232.295 138.839 232.618C138.497 232.936 138.299 233.366 138.285 233.829C138.276 234.075 138.081 234.269 137.846 234.269" fill="#27495A"/>
<path d="M138.634 249.994C138.634 250.675 138.328 251.274 137.846 251.656C137.508 251.932 137.082 252.09 136.622 252.09C135.509 252.09 134.612 251.153 134.612 249.994L134.616 249.936C134.642 248.808 135.528 247.897 136.622 247.897C137.731 247.897 138.634 248.837 138.634 249.994Z" fill="#27495A"/>
<path d="M137.849 251.594L137.846 251.656C137.508 251.932 137.082 252.09 136.622 252.09C135.509 252.09 134.612 251.153 134.612 249.994L134.616 249.936C134.954 249.662 135.379 249.498 135.838 249.498C136.948 249.498 137.849 250.438 137.849 251.594Z" fill="#F0337A"/>
<path d="M148.61 218.505C148.669 218.09 148.691 217.663 148.664 217.227C148.459 213.981 145.811 211.52 142.748 211.727C142.013 211.779 141.323 211.982 140.697 212.3C139.893 209.863 137.637 208.185 135.088 208.358C133.06 208.498 131.363 209.776 130.505 211.565C129.525 209.528 127.471 208.194 125.182 208.349C122.12 208.56 119.803 211.361 120.006 214.607C120.021 214.829 120.048 215.044 120.084 215.259C119.298 214.895 118.421 214.716 117.507 214.778C114.444 214.987 112.127 217.788 112.331 221.036C112.389 221.954 112.649 222.805 113.052 223.555C111.261 224.635 110.109 226.728 110.255 229.055C110.337 230.362 110.82 231.536 111.56 232.464C110.268 233.86 109.516 235.807 109.648 237.917C109.894 241.839 113.097 244.818 116.8 244.565C120.502 244.313 123.304 240.924 123.058 237C123.009 236.225 122.843 235.493 122.583 234.811C124.077 235.002 125.711 234.711 127.227 233.875C129.759 232.477 131.263 229.941 131.306 227.46C132.528 228.063 133.931 228.407 135.425 228.401C137.153 228.392 138.755 227.922 140.092 227.12C140.905 230.339 143.771 232.614 147.027 232.39C150.73 232.137 153.532 228.75 153.284 224.826C153.095 221.816 151.167 219.37 148.61 218.505" fill="#27495A"/>
<path d="M166.019 297.684C166.019 297.684 162.946 301.832 158.365 301.832C153.783 301.832 150.71 297.684 150.71 297.684V286.454H166.019V297.684" fill="#1CADEA"/>
<path d="M127.566 236.016C123.763 236.016 120.671 239.243 120.671 243.205C120.671 247.169 123.763 250.393 127.566 250.393C131.367 250.393 134.46 247.169 134.46 243.205C134.46 239.243 131.367 236.016 127.566 236.016ZM127.566 251.85C122.993 251.85 119.272 247.974 119.272 243.205C119.272 238.438 122.993 234.561 127.566 234.561C132.139 234.561 135.858 238.438 135.858 243.205C135.858 247.974 132.139 251.85 127.566 251.85Z" fill="#FBC338"/>
<path d="M144.242 228.458C140.529 228.458 137.506 231.61 137.506 235.481C137.506 239.356 140.529 242.502 144.242 242.502C147.956 242.502 150.977 239.356 150.977 235.481C150.977 231.61 147.956 228.458 144.242 228.458ZM144.242 243.928C139.775 243.928 136.14 240.139 136.14 235.481C136.14 230.823 139.775 227.036 144.242 227.036C148.708 227.036 152.342 230.823 152.342 235.481C152.342 240.139 148.708 243.928 144.242 243.928Z" fill="#FBC338"/>
<path d="M139.235 245.036L138.921 244.896C138.752 244.716 138.756 244.427 138.931 244.251L140.161 243.009L137.727 242.272C137.493 242.202 137.36 241.948 137.428 241.706C137.495 241.463 137.735 241.325 137.97 241.394L141.13 242.352C141.28 242.397 141.395 242.522 141.433 242.681C141.47 242.839 141.424 243.005 141.312 243.12L139.539 244.908L139.235 245.036" fill="#27495A"/>
<path d="M135.042 240.28L133.886 239.519C133.94 239.431 135.209 237.377 137.447 237.67L137.277 239.082C135.911 238.897 135.076 240.225 135.042 240.28" fill="#FBC338"/>
<path d="M230.167 384.378C228.482 385.519 226.283 391.548 227.642 392.118C228.272 392.382 228.81 391.378 230.093 389.472C231.719 387.071 233.785 384.97 239.154 383.455C239.154 383.455 232.075 383.082 230.167 384.378" fill="#D86B2A"/>
<path d="M249.981 407.485L250.02 407.676C250.049 407.811 250.092 408.013 250.147 408.265C250.261 408.782 250.433 409.528 250.656 410.418C251.1 412.204 251.761 414.577 252.545 416.852C252.936 417.991 253.36 419.101 253.79 420.099C254.005 420.601 254.22 421.075 254.433 421.506C254.538 421.724 254.644 421.932 254.748 422.126C254.85 422.323 254.951 422.514 255.05 422.684C255.246 423.037 255.434 423.333 255.6 423.592L255.832 423.938L256.032 424.205C256.152 424.375 256.244 424.47 256.308 424.548L256.404 424.667L256.647 424.963C257.756 426.322 257.599 428.358 256.296 429.514C255.115 430.562 253.398 430.524 252.261 429.496C252.261 429.496 252.183 429.427 252.038 429.295C251.895 429.162 251.664 428.965 251.428 428.71C251.305 428.583 251.171 428.442 251.023 428.29C250.887 428.134 250.741 427.97 250.583 427.791C250.281 427.432 249.953 427.024 249.628 426.578C249.461 426.355 249.299 426.122 249.132 425.879C248.962 425.638 248.797 425.388 248.632 425.13C248.294 424.613 247.965 424.067 247.638 423.497C246.982 422.363 246.347 421.146 245.759 419.917C244.578 417.467 243.567 414.981 242.857 413.093C242.501 412.15 242.219 411.358 242.022 410.794C241.924 410.507 241.849 410.28 241.797 410.128C241.743 409.963 241.715 409.875 241.715 409.875L241.702 409.839C240.939 407.497 242.144 404.95 244.39 404.155C246.639 403.359 249.08 404.613 249.844 406.956C249.899 407.124 249.947 407.315 249.981 407.485" fill="#E19A4F"/>
<path d="M217.22 431.893C217.22 431.893 216.95 431.858 216.478 431.793C216.179 431.744 215.721 431.658 215.271 431.544C214.859 431.405 214.387 431.273 213.909 431.039C213.665 430.93 213.413 430.818 213.167 430.666C212.922 430.515 212.658 430.386 212.416 430.201C211.916 429.858 211.421 429.449 210.958 428.983C210.498 428.513 210.064 427.988 209.691 427.409C209.506 427.116 209.318 426.827 209.17 426.51L208.935 426.044C208.866 425.885 208.805 425.721 208.74 425.558C208.678 425.394 208.612 425.237 208.556 425.071L208.41 424.569C208.306 424.24 208.246 423.9 208.186 423.565C208.114 423.232 208.096 422.896 208.067 422.566C208.029 422.237 208.045 421.909 208.046 421.592L208.051 421.353L208.055 421.165L208.067 421.069L208.11 420.684L208.133 420.493L208.169 420.262C208.199 420.102 208.225 419.944 208.254 419.791C208.378 419.196 208.537 418.696 208.719 418.226C208.905 417.766 209.096 417.351 209.3 417.011C209.487 416.658 209.693 416.38 209.851 416.145C210.014 415.912 210.162 415.748 210.254 415.628L210.399 415.452C210.82 414.935 211.562 414.87 212.057 415.311C212.503 415.704 212.596 416.371 212.305 416.876L212.239 416.987L212.155 417.137C212.103 417.234 212.009 417.369 211.92 417.554C211.833 417.742 211.715 417.963 211.623 418.235C211.515 418.496 211.427 418.808 211.346 419.146C211.272 419.477 211.213 419.871 211.195 420.232L211.187 420.493L211.182 420.631L211.189 420.822L211.2 421.21L211.203 421.307L211.205 421.313L211.206 421.248L211.208 421.257L211.21 421.278L211.216 421.316L211.239 421.472C211.274 421.682 211.285 421.894 211.349 422.103C211.402 422.308 211.44 422.523 211.522 422.723C211.593 422.927 211.658 423.133 211.758 423.324L211.893 423.617L212.056 423.894L212.217 424.168L212.403 424.422C212.517 424.602 212.661 424.751 212.797 424.904C213.069 425.21 213.372 425.471 213.676 425.694C213.982 425.915 214.295 426.097 214.602 426.235C214.748 426.322 214.911 426.358 215.055 426.417C215.196 426.482 215.346 426.513 215.483 426.546C215.757 426.636 216.023 426.645 216.245 426.692C216.445 426.692 216.558 426.698 216.727 426.707C217.201 426.692 217.472 426.686 217.472 426.686C218.857 426.648 220.007 427.791 220.043 429.233C220.078 430.678 218.985 431.876 217.6 431.914L217.22 431.893" fill="#E19A4F"/>
<path d="M249.345 396.555C245.876 394.105 241.757 392.679 237.338 392.679C224.974 392.679 214.948 403.794 214.948 417.501C214.948 421.891 215.981 428.337 217.785 431.914H236.658C236.658 431.914 237.787 431.819 239.34 431.362C242.322 430.481 246.861 428.248 247.932 422.733C249.185 416.294 249.345 396.555 249.345 396.555" fill="#EDA654"/>
<path d="M259.372 383.143C265.354 388.454 266.428 397.377 261.769 403.083C257.113 408.791 248.487 409.115 242.507 403.806C236.524 398.499 231.332 387.49 235.989 381.784C240.648 376.079 253.392 377.838 259.372 383.143Z" fill="#EDA654"/>
<path d="M266.495 397.16C266.842 398.505 266.078 399.888 264.79 400.249C263.498 400.614 262.171 399.817 261.822 398.473C261.475 397.13 262.238 395.744 263.53 395.38C264.818 395.019 266.146 395.815 266.495 397.16Z" fill="#27495A"/>
<path d="M252.468 392.274C252.401 393.143 251.734 393.794 250.975 393.729C250.218 393.668 249.658 392.913 249.723 392.047C249.79 391.178 250.457 390.527 251.216 390.589C251.973 390.653 252.534 391.408 252.468 392.274Z" fill="#27495A"/>
<path d="M238.103 381.455L240.776 395.792C241.394 399.115 239.313 402.331 236.127 402.977C232.94 403.624 229.854 401.453 229.237 398.129C229.11 397.454 229.1 396.754 229.185 396.106L231.139 381.643C231.41 379.63 233.197 378.225 235.129 378.51C236.659 378.734 237.822 379.958 238.103 381.455" fill="#27495A"/>
<path d="M226.123 407.372C228.624 407.372 230.885 408.428 232.522 410.136C234.16 411.844 235.172 414.2 235.172 416.805C235.172 419.411 234.16 421.768 232.522 423.476C230.885 425.184 228.624 426.241 226.123 426.241L225.96 426.411L226.123 426.581C231.302 426.581 235.498 422.203 235.498 416.805C235.498 411.408 231.302 407.032 226.123 407.032L225.96 407.202L226.123 407.372" fill="#B0612E"/>
<path d="M235.677 432.084C237.54 432.081 239.072 430.678 239.075 428.91C239.072 427.143 237.54 425.742 235.677 425.739H229.064L228.901 425.909L229.064 426.079H235.677C237.389 426.08 238.745 427.363 238.749 428.91C238.745 430.458 237.389 431.742 235.677 431.744L235.514 431.914L235.677 432.084" fill="#B0612E"/>
<path d="M234.404 427.382C235.557 427.384 236.493 428.358 236.495 429.564C236.493 430.768 235.557 431.741 234.404 431.744L234.241 431.914L234.404 432.084C235.738 432.084 236.821 430.956 236.821 429.564C236.821 428.17 235.738 427.042 234.404 427.042L234.241 427.212L234.404 427.382" fill="#B0612E"/>
<path d="M243.475 407.153C243.475 407.153 243.47 407.229 243.465 407.374C243.459 407.525 243.452 407.75 243.441 408.037C243.426 408.619 243.413 409.457 243.415 410.471C243.418 412.495 243.493 415.202 243.739 417.844C243.799 418.505 243.873 419.159 243.952 419.8C244.036 420.434 244.126 421.06 244.227 421.651C244.33 422.24 244.439 422.804 244.556 423.321C244.674 423.841 244.797 424.319 244.922 424.742C245.045 425.172 245.172 425.536 245.286 425.853C245.346 426.005 245.403 426.146 245.455 426.279L245.605 426.611C245.694 426.821 245.77 426.942 245.821 427.042L245.894 427.188L246.08 427.55C246.888 429.12 246.321 431.076 244.814 431.917C243.441 432.686 241.76 432.259 240.863 430.989C240.863 430.989 240.795 430.894 240.668 430.712C240.546 430.536 240.345 430.266 240.152 429.935C240.053 429.767 239.934 429.579 239.82 429.376C239.714 429.174 239.598 428.956 239.474 428.725C239.243 428.263 238.995 427.738 238.765 427.175C238.528 426.611 238.3 425.999 238.083 425.36C237.862 424.719 237.656 424.046 237.46 423.354C237.261 422.661 237.08 421.947 236.906 421.219C236.737 420.496 236.576 419.762 236.43 419.029C235.843 416.094 235.454 413.179 235.219 410.979C235.1 409.881 235.018 408.958 234.968 408.307C234.945 407.978 234.924 407.716 234.911 407.541C234.9 407.353 234.894 407.25 234.894 407.25L234.891 407.226C234.741 404.756 236.54 402.627 238.909 402.469C241.275 402.313 243.319 404.188 243.47 406.656C243.48 406.823 243.482 406.992 243.475 407.153Z" fill="#EDA654"/>
<path d="M243.577 417.86C243.638 418.524 243.711 419.181 243.79 419.823V419.824C243.874 420.459 243.965 421.087 244.067 421.681C244.17 422.273 244.279 422.84 244.398 423.36C244.516 423.883 244.64 424.365 244.767 424.793L244.922 424.742L244.765 424.792C244.889 425.226 245.019 425.594 245.134 425.912L245.136 425.918C245.196 426.07 245.251 426.211 245.303 426.343L245.306 426.351L245.458 426.683L245.605 426.611L245.456 426.678C245.548 426.901 245.633 427.033 245.675 427.119L245.677 427.122L245.75 427.268L245.938 427.63C246.173 428.09 246.285 428.583 246.285 429.072C246.285 430.162 245.724 431.216 244.738 431.766C244.297 432.014 243.824 432.13 243.356 432.13C242.444 432.13 241.557 431.684 240.994 430.888C240.993 430.887 240.926 430.794 240.801 430.613C240.675 430.433 240.479 430.168 240.292 429.846L240.29 429.845C240.188 429.675 240.071 429.488 239.962 429.292L239.82 429.376L239.963 429.295C239.856 429.092 239.741 428.874 239.617 428.642L239.474 428.725L239.618 428.645C239.389 428.188 239.144 427.666 238.915 427.107C238.68 426.546 238.453 425.939 238.237 425.303C238.016 424.665 237.811 423.996 237.615 423.305C237.418 422.616 237.238 421.905 237.064 421.177C236.896 420.457 236.736 419.725 236.59 418.994C236.003 416.067 235.615 413.156 235.38 410.961C235.262 409.863 235.181 408.943 235.131 408.294C235.106 407.965 235.087 407.703 235.074 407.527L234.911 407.541L235.074 407.53C235.063 407.342 235.057 407.24 235.057 407.24V407.229L235.054 407.205L234.871 407.058L234.73 407.247L234.733 407.271L234.894 407.25L234.733 407.259C234.733 407.259 234.737 407.363 234.748 407.551V407.553C234.761 407.73 234.782 407.992 234.805 408.319C234.857 408.975 234.939 409.898 235.057 410.999C235.292 413.201 235.682 416.122 236.27 419.063C236.417 419.798 236.578 420.535 236.747 421.258C236.923 421.989 237.103 422.706 237.302 423.402C237.5 424.097 237.708 424.772 237.93 425.417C238.147 426.059 238.377 426.674 238.615 427.242C238.848 427.809 239.098 428.34 239.33 428.803L239.331 428.807C239.455 429.039 239.571 429.255 239.678 429.458L239.68 429.461C239.796 429.669 239.916 429.86 240.014 430.024L240.152 429.935L240.012 430.022C240.211 430.364 240.417 430.64 240.537 430.812C240.664 430.995 240.732 431.09 240.733 431.09C241.356 431.975 242.343 432.47 243.356 432.47C243.876 432.47 244.403 432.341 244.892 432.065C245.988 431.455 246.611 430.282 246.611 429.072C246.611 428.529 246.487 427.98 246.225 427.469L246.039 427.108L245.964 426.963L245.821 427.042L245.965 426.964C245.909 426.85 245.838 426.743 245.755 426.542L245.752 426.537L245.602 426.205L245.455 426.279L245.605 426.214C245.553 426.082 245.498 425.94 245.437 425.787L245.286 425.853L245.439 425.793C245.325 425.477 245.199 425.116 245.078 424.694V424.692C244.954 424.274 244.832 423.799 244.715 423.282C244.598 422.769 244.49 422.209 244.387 421.621C244.286 421.033 244.197 420.41 244.113 419.777L243.952 419.8L244.113 419.779C244.034 419.14 243.962 418.487 243.901 417.829L243.723 417.676L243.577 417.86" fill="#B0612E"/>
<path d="M229.721 384.671C229.721 384.671 243.329 387.792 250.975 375.225C250.975 375.225 244.588 365.094 233.526 369.971C231.205 370.995 228.458 374.931 229.675 379.682C229.675 379.682 230.719 384.227 229.721 384.671" fill="#FBC66D"/>
<path d="M249.826 374.411C249.826 374.411 265.39 374.925 260.796 380.36C258.135 383.509 252.473 385.761 245.545 385.672L234.906 384.97L249.826 374.411" fill="#FBC66D"/>
<path d="M232.787 370.215C233.057 370.878 232.727 371.66 232.05 371.962C231.371 372.264 230.602 371.971 230.33 371.306C230.06 370.643 230.389 369.862 231.068 369.559C231.746 369.26 232.516 369.553 232.787 370.215Z" fill="#FBC66D"/>
<path d="M233.218 385.241C231.152 385.241 229.76 384.948 229.669 384.927C229.535 384.896 229.447 384.76 229.476 384.618C229.503 384.477 229.636 384.391 229.772 384.415C229.806 384.421 233.204 385.136 237.266 384.325C240.217 383.734 247.383 381.578 250.173 374.343L250.499 374.196L250.636 374.537C247.753 382.013 240.393 384.23 237.36 384.835C235.834 385.142 234.412 385.241 233.218 385.241" fill="#F8A24E"/>
<path d="M250.271 407.283C249.967 407.24 249.663 407.189 249.361 407.121H249.36C246.979 406.622 244.641 405.478 242.612 403.677L242.383 403.695L242.4 403.935C244.473 405.774 246.861 406.944 249.295 407.455H249.293C249.605 407.523 249.918 407.577 250.226 407.62L250.411 407.476L250.271 407.283" fill="#B0612E"/>
<path d="M291.011 389.846L287.73 392.709L285.268 388.058L283.463 392.746L283.333 392.788L279.955 389.846C279.955 389.846 278.443 401.279 285.594 401.279C292.748 401.279 291.011 389.846 291.011 389.846" fill="#F35EA7"/>
<path d="M307.853 427.274L299.737 413.688H269.385L261.269 427.274C261.269 427.274 265.134 433.337 284.562 433.337C303.989 433.337 307.853 427.274 307.853 427.274Z" fill="#EF2F51"/>
<path d="M299.839 413.988C299.839 414.476 299.091 414.939 297.791 415.335C295.151 416.144 290.215 416.682 284.567 416.682C278.916 416.682 273.979 416.144 271.339 415.335C270.037 414.939 269.293 414.476 269.293 413.988C269.293 412.495 276.13 411.286 284.567 411.286C292.999 411.286 299.839 412.495 299.839 413.988" fill="#C82530"/>
<path d="M284.567 416.049C284.326 416.049 284.093 415.916 283.967 415.683C282.026 412.078 281.471 408.797 282.315 405.933C283.391 402.281 286.351 400.703 286.478 400.637C286.817 400.464 287.227 400.603 287.395 400.957C287.564 401.309 287.428 401.74 287.091 401.917C287.066 401.933 284.515 403.31 283.621 406.374C282.9 408.844 283.419 411.741 285.163 414.984C285.349 415.329 285.232 415.765 284.899 415.957L284.567 416.049" fill="#3AB092"/>
<path d="M285.21 402.332C285.21 402.332 281.072 402.471 279.929 397.282C279.929 397.282 283.262 396.475 285.444 398.778C285.444 398.778 287.774 402.349 285.21 402.332" fill="#53C38D"/>
<path d="M285.62 400.934C285.62 400.934 286.265 396.67 291.37 396.47C291.37 396.47 291.504 400.035 288.927 401.838C288.927 401.838 285.127 403.559 285.62 400.934Z" fill="#53C38D"/>
<path d="M282.879 408.408C282.879 408.408 283.686 404.174 288.796 404.194C288.796 404.194 288.793 407.763 286.145 409.455C286.145 409.455 282.282 411.009 282.879 408.408Z" fill="#53C38D"/>
<path d="M286.422 415.335C286.422 415.861 286.015 416.285 285.51 416.285C285.004 416.285 284.595 415.861 284.595 415.335C284.595 414.807 285.004 414.383 285.51 414.383C286.015 414.383 286.422 414.807 286.422 415.335Z" fill="#DB583F"/>
<path d="M287.219 414.033C287.094 413.777 286.849 413.598 286.557 413.598C286.406 413.598 286.275 413.655 286.156 413.733C286.028 413.493 285.792 413.827 285.51 413.827C285.134 413.827 284.838 413.49 284.782 414.993H284.567C284.339 414.993 284.12 414.496 283.897 414.499C283.731 414.263 283.474 413.845 283.171 413.845C282.89 413.845 282.648 413.863 282.479 414.075C282.344 413.867 282.127 413.661 281.872 413.661C281.65 413.661 281.458 413.733 281.32 413.893L280.984 413.783C280.738 413.783 280.531 413.908 280.394 414.099C276.539 414.291 273.304 414.738 271.339 415.338C273.979 416.147 278.916 416.685 284.567 416.685C290.215 416.685 295.151 416.143 297.791 415.335C295.575 414.658 291.733 414.174 287.219 414.033" fill="#DB583F"/>
<path d="M529.978 464.938H5.46539V451.875H529.978V464.938" fill="#DB583F"/>
</svg>
