<svg width="50" height="60" viewBox="0 0 50 60" fill="none" xmlns="http://www.w3.org/2000/svg">
<path fill-rule="evenodd" clip-rule="evenodd" d="M42.1398 20.6932C48.8381 29.9184 48.1048 33.0912 36.9054 43.405C33.3343 43.6227 30.1369 46.7868 26.2399 44.4564C25.1961 39.1906 29.4499 35.7791 32.8201 31.1257C24.7437 29.5523 16.6828 28.8039 11.3528 23.0335C8.26638 20.8577 6.50753 18.5495 8.34927 14.736C9.74849 11.8378 10.3006 8.58581 10.9988 5.44146L10.9791 5.4761C16.0436 1.48196 21.285 0.561659 26.9479 4.61517C28.5101 5.73091 30.4389 6.16261 32.4675 6.40876C42.6975 7.64572 44.0434 9.38736 41.9853 18.573C41.8139 19.3337 41.7071 20.0079 42.1398 20.6932Z" fill="#335397"/>
<path fill-rule="evenodd" clip-rule="evenodd" d="M10.9988 5.44145C11.0662 8.88762 11.9555 12.4884 9.66279 15.6117C6.90369 19.3696 12.3966 19.8001 12.8433 22.2146C15.7654 26.2508 19.0359 29.9159 23.8826 32.422C27.0364 34.0498 28.7882 36.598 27.2359 40.0491C24.3827 42.1037 21.5828 40.7937 19.6456 39.2055C14.435 34.9305 7.88989 32.3886 2.48688 28.4105C1.93056 27.8762 1.40937 27.3121 0.920486 26.7258C2.08088 18.8229 7.39398 12.4463 10.9988 5.44145Z" fill="#305EA1"/>
<path fill-rule="evenodd" clip-rule="evenodd" d="M42.1398 20.6932C40.1773 19.596 41.3461 18.2353 41.4936 16.7967C42.0162 11.7376 41.9038 6.98765 33.3891 8.50045C31.2945 8.87154 28.6323 9.15728 27.042 7.36122C22.3246 2.0324 16.8851 2.45049 10.9791 5.47609C14.2398 2.43317 31.6541 -1.22327 35.1803 0.398378C43.3241 4.14018 45.3597 10.0689 42.1398 20.6932Z" fill="#305EA1"/>
<path fill-rule="evenodd" clip-rule="evenodd" d="M0.920486 26.7258C1.45994 26.7258 1.9994 26.7382 2.53886 26.7555C3.49134 28.3079 5.17995 29.457 5.80651 31.1665C8.02615 37.2115 12.8377 40.0503 19.9139 40.2754C22.2122 40.3497 24.4965 40.6762 26.1359 42.3746C26.2975 42.7122 26.4562 43.0499 26.6136 43.3889C30.04 45.9951 33.479 42.1432 36.9054 43.4049C32.5111 46.1003 28.0296 47.8048 22.8542 44.8114C21.219 43.8676 19.5233 44.0296 18.5161 45.7045C14.8017 51.9004 10.4284 48.3676 7.84914 45.4843C3.0741 40.1493 -2.15611 34.4951 0.920486 26.7258Z" fill="#328BC9"/>
<path fill-rule="evenodd" clip-rule="evenodd" d="M18.141 55.8191C18.2604 54.2927 18.9811 53.2363 20.6641 53.4156C23.0481 53.6692 23.8306 55.3935 23.6887 57.1451C23.5791 58.476 23.0186 60.4824 20.8186 59.8948C18.8434 59.3691 18.4697 57.3789 18.141 55.8191Z" fill="#2E75B3"/>
<path fill-rule="evenodd" clip-rule="evenodd" d="M47.0694 39.7114C49.0432 40.0899 50.0125 41.2007 49.9999 42.8397C49.9844 44.7186 48.5388 45.3408 46.6479 45.222C44.7163 45.1033 43.4744 44.2127 43.761 42.3919C44.0181 40.7665 45.1855 39.8079 47.0694 39.7114Z" fill="#2E75B3"/>
<path fill-rule="evenodd" clip-rule="evenodd" d="M2.01626 48.6868C1.81818 47.4919 2.5515 47.143 3.37052 47.3187C4.02939 47.4585 4.88213 47.9322 5.08442 48.4344C5.38787 49.1914 4.72057 49.8582 3.75966 49.664C3.07691 49.5242 2.50233 48.9737 2.01626 48.6868Z" fill="#328BC9"/>
<path fill-rule="evenodd" clip-rule="evenodd" d="M26.5939 40.3769C26.9212 37.303 25.7299 34.4098 22.4904 33.5625C15.8118 31.8122 14.4519 27.0412 12.8433 22.2146C17.9373 26.1185 23.5552 28.7556 30.6047 28.3103C32.9213 28.1656 35.4458 28.3846 36.1355 30.8387C36.7593 33.0627 34.4877 33.8 32.7864 34.6436C28.8992 36.5782 29.4794 40.9211 26.6136 43.3889L26.57 43.4186C25.6498 42.4005 25.5178 41.3862 26.5939 40.3769Z" fill="#2F578E"/>
<path fill-rule="evenodd" clip-rule="evenodd" d="M26.5939 40.3769C26.5855 41.3924 26.5784 42.4055 26.57 43.4186C24.9741 42.9238 23.4147 42.1531 21.7739 41.9726C6.60025 40.294 6.59603 40.3249 2.53886 26.7555C10.5577 31.2951 18.5737 35.836 26.5939 40.3769Z" fill="#2E75B3"/>
<path d="M30.7185 46.6767V31.5883H36.4713L37.3325 25.7078H30.7185V21.9524C30.7185 20.2503 31.2551 19.0913 34.0283 19.0913L37.5657 19.0888V13.8305C36.9532 13.7588 34.8543 13.598 32.4113 13.598C27.3132 13.598 23.8222 16.3391 23.8222 21.371V25.7078H18.0567V31.5883H23.8222V46.6767H30.7185Z" fill="white"/>
</svg>
