<svg width="50" height="50" viewBox="0 0 50 50" fill="none" xmlns="http://www.w3.org/2000/svg">
<path fill-rule="evenodd" clip-rule="evenodd" d="M4.19756 12.7596C1.52591 7.26976 2.24287 4.51719 8.35915 1.85147C14.4743 -0.81424 41.3238 -0.411893 39.3528 1.85147C37.3806 4.11484 39.7591 3.41999 39.055 4.06375C36.9777 5.50965 34.6319 5.41385 32.3105 5.47005C26.9404 5.54158 21.5667 5.46622 16.1896 5.50965C12.1144 5.54158 8.89862 7.01047 7.03734 11.2051C6.31105 12.2052 5.47499 12.9754 4.19756 12.7596Z" fill="#B43193"/>
<path fill-rule="evenodd" clip-rule="evenodd" d="M38.08 3.75209C38.0753 3.23861 38.0753 2.72642 38.08 2.2155C38.5506 2.2155 39.0176 2.2155 39.4882 2.2155C40.6103 4.40095 42.9188 3.25011 44.4053 4.2911C46.2619 5.5965 45.775 6.50721 43.8238 6.91978C42.5242 8.13576 43.3953 10.1897 42.3478 11.5014C42.3443 12.5041 42.3408 13.5093 42.3397 14.5159C38.4875 14.6091 37.7239 10.8807 35.9723 8.36568C35.3943 6.12913 36.506 4.81224 38.08 3.75209Z" fill="#913895"/>
<path fill-rule="evenodd" clip-rule="evenodd" d="M4.19755 12.7596C4.69264 12.2001 5.18891 11.6381 5.68283 11.0774C11.5235 3.84278 19.8246 5.23503 26.1732 7.19695C32.4471 9.13717 38.5436 13.7188 44.5583 17.4702C47.8604 21.0441 48.2703 25.1659 46.4966 29.6991C46.4289 30.9546 46.0786 32.034 44.9564 32.6279C43.5646 34.2386 43.8285 36.5645 42.8943 38.3783C40.7773 40.8243 37.2965 42.0697 35.3138 40.8103C29.8397 37.3322 28.2692 40.7196 26.7314 45.2182C16.0226 51.2458 16.6882 50.2827 8.05088 40.399C0.184247 31.394 -0.173061 22.9141 4.19755 12.7596Z" fill="#EF3E6E"/>
<path fill-rule="evenodd" clip-rule="evenodd" d="M43.5938 18.7935C41.8528 19.1614 42.0046 11.6356 38.5459 17.6044C37.2077 19.9112 35.7808 16.2977 34.5641 15.0664C26.9322 7.34001 14.0107 5.55307 5.6805 11.0774C6.6882 5.44961 9.94602 3.2003 15.0277 3.35102C20.7797 3.52345 26.5375 3.47747 32.2942 3.52856C34.1449 5.06515 35.1433 7.90841 37.9632 7.94928C40.7762 9.00816 41.3939 12.4492 43.6113 14.1531C44.1005 14.6449 44.5875 15.1353 45.0779 15.6271C45.942 17.4447 44.5758 18.0093 43.5938 18.7935Z" fill="#EA2888"/>
<path fill-rule="evenodd" clip-rule="evenodd" d="M26.7314 45.2182C28.797 41.0274 23.9418 42.73 23.1933 40.0234C27.9948 40.0439 31.9065 37.9874 34.7393 34.1543C37.279 36.7242 34.4112 37.875 34.8642 39.9481C37.6316 40.4194 39.9378 39.0476 42.1552 37.3322C44.7895 37.138 44.4322 38.6261 43.5903 40.3836C37.9714 41.9969 32.349 43.6075 26.7314 45.2182Z" fill="#EA2888"/>
<path fill-rule="evenodd" clip-rule="evenodd" d="M43.5938 18.7935C44.09 17.7359 44.5805 16.6822 45.0779 15.6271C48.9055 19.9137 53.1944 24.1454 46.4931 29.6978C45.5928 26.0422 46.6624 21.7607 43.5938 18.7935Z" fill="#9C3694"/>
<path fill-rule="evenodd" clip-rule="evenodd" d="M43.5903 40.3836C43.5015 39.1485 43.3124 37.9696 42.1552 37.3322C42.1704 35.1071 42.9188 33.4071 44.9588 32.6279C43.4373 34.9883 48.8086 38.8024 43.5903 40.3836Z" fill="#9C3694"/>
<path fill-rule="evenodd" clip-rule="evenodd" d="M42.3467 11.868C41.5819 9.855 39.7031 6.61578 43.5938 6.39736C45.5578 5.62332 46.7967 10.9599 46.7967 10.9599C46.7967 10.9599 42.9761 13.9832 42.3467 11.868Z" fill="#B43193"/>
<path fill-rule="evenodd" clip-rule="evenodd" d="M37.9632 7.94928C37.5335 8.7527 36.8212 10.2918 36.715 10.2446C34.02 9.0171 32.1108 7.06156 32.2942 3.52728C34.647 3.48258 36.9987 3.43149 39.3528 3.38678C38.8904 4.90932 38.428 6.42802 37.9632 7.94928Z" fill="#BD2F92"/>
<path fill-rule="evenodd" clip-rule="evenodd" d="M9.87596 48.5826C9.42991 48.4319 8.98269 48.2812 8.53663 48.1304C2.93763 46.5287 1.22698 40.8 0.40027 36.1545C-0.417103 31.5626 0.233292 26.304 0.462157 21.343C1.39746 18.1702 3.48293 16.6885 6.43365 16.4842C7.12608 16.1559 7.80684 16.0614 8.45606 16.6042C9.73117 17.0194 10.8977 16.1636 12.1448 16.2249C14.0784 16.8584 15.7751 18.7182 15.6875 20.3608C15.4446 24.8952 17.7227 24.899 20.5847 24.5541C26.9777 29.6301 26.2655 29.4883 23.5296 37.9427C21.0366 45.6423 16.6041 48.3795 9.87596 48.5826Z" fill="#F3745B"/>
<path fill-rule="evenodd" clip-rule="evenodd" d="M4.11114 44.9845C3.27742 44.9065 2.4472 44.821 1.61815 44.7239C1.69755 43.8093 1.77696 42.9012 1.85636 41.9892C5.59525 40.1793 4.11815 35.498 6.06233 32.7876C8.49693 29.4027 9.89347 30.5038 10.2309 34.365C11.9836 37.0959 15.468 35.7509 17.4191 38.0104C19.048 38.188 20.6781 38.3642 22.3129 38.5392C21.8096 46.0395 15.6256 46.8876 11.2456 49.8637C7.51608 50.6058 5.56606 48.2237 4.11114 44.9845Z" fill="#F99D4A"/>
<path d="M17.0747 9.53441C12.996 9.53441 9.67862 13.1632 9.67862 17.6248V29.0132C9.67862 33.4748 12.996 37.1036 17.0747 37.1036H28.8892C32.9667 37.1036 36.2853 33.4748 36.2853 29.0132V17.6248C36.2853 13.1632 32.9667 9.53441 28.8892 9.53441H17.0747ZM28.8892 39.4155H17.0747C11.8306 39.4155 7.56512 34.7495 7.56512 29.0132V17.6248C7.56512 11.8885 11.8306 7.22251 17.0747 7.22251H28.8892C34.1321 7.22251 38.3988 11.8885 38.3988 17.6248V29.0132C38.3988 34.7495 34.1321 39.4155 28.8892 39.4155Z" fill="white"/>
<path d="M22.9819 16.3718C19.4789 16.3718 16.6298 19.4871 16.6298 23.319C16.6298 27.1496 19.4789 30.2675 22.9819 30.2675C26.4838 30.2675 29.3341 27.1496 29.3341 23.319C29.3341 19.4871 26.4838 16.3718 22.9819 16.3718ZM22.9819 32.5794C18.3147 32.5794 14.5175 28.4243 14.5175 23.319C14.5175 18.2136 18.3147 14.0599 22.9819 14.0599C27.6491 14.0599 31.4464 18.2136 31.4464 23.319C31.4464 28.4243 27.6491 32.5794 22.9819 32.5794Z" fill="white"/>
<path d="M33.0742 14.3447C33.0742 15.4049 32.2872 16.2658 31.318 16.2658C30.3465 16.2658 29.5606 15.4049 29.5606 14.3447C29.5606 13.2833 30.3465 12.4224 31.318 12.4224C32.2872 12.4224 33.0742 13.2833 33.0742 14.3447Z" fill="white"/>
</svg>
