<svg width="50" height="50" viewBox="0 0 50 50" fill="none" xmlns="http://www.w3.org/2000/svg">
<path fill-rule="evenodd" clip-rule="evenodd" d="M18.0098 49.2468C14.9069 45.2066 7.35832 46.7907 5.6306 41.0025C4.91844 40.0208 3.74556 39.4261 3.07414 38.3941C2.04875 36.8036 1.66528 35.0414 3.55734 34.043C6.22196 32.6356 7.79376 33.8456 8.27836 36.3998C8.88377 34.083 7.87944 31.8926 7.12374 29.6635C4.69651 22.504 9.66475 12.1854 17.1557 8.92817C17.8342 8.63276 18.6601 8.91785 19.3498 9.26486C22.2616 12.8949 18.9481 15.8915 18.1306 19.1436C17.2232 22.7362 15.1401 26.5997 20.5227 28.834C25.7423 30.9973 31.9481 29.0804 34.3753 24.5435C36.9093 19.8131 33.6674 17.059 30.0771 14.5203C26.838 12.228 22.1226 12.4202 19.3933 9.23261C20.1139 4.83632 23.6101 5.15882 26.9784 5.62322C37.4698 7.0693 45.1686 16.5327 44.2036 26.6604C43.5477 33.5644 33.3527 39.7705 22.1816 39.9073C25.3238 42.0035 27.9097 44.2094 25.9755 48.0703C23.4205 49.0585 21.0466 51.0451 18.0098 49.2468Z" fill="#00BAE1"/>
<path fill-rule="evenodd" clip-rule="evenodd" d="M25.7536 47.7169C25.2226 42.2048 21.3458 40.213 15.8213 40.2788C16.1275 37.1364 18.3974 37.7517 19.8161 38.2161C23.7702 39.5151 27.9757 38.6302 30.91 37.1635C36.1817 34.5254 43.4592 32.2125 42.2877 24.6802C40.456 12.9426 34.093 6.89128 24.488 6.77905C22.1479 6.75196 20.5775 7.65495 19.5984 9.55511C10.575 13.8198 6.71077 22.0448 9.84594 30.2453C10.096 30.8954 10.2505 31.601 10.2842 32.2873C10.3516 33.6753 10.3053 35.066 10.3053 36.3559C7.41309 37.7027 6.33011 33.0936 4.33551 34.7615C1.79872 36.8784 5.58143 38.8031 5.632 40.9999C-0.759147 39.43 -0.812523 35.4813 1.09358 30.7948C3.55874 26.8423 4.74145 22.6214 4.23859 18.051C4.62487 17.5453 5.00834 17.0358 5.39321 16.5275C9.10008 13.8276 9.2265 9.16166 12.1973 6.04892C17.6375 3.09097 23.9598 2.58787 29.8214 2.45371C36.2856 2.30407 40.39 7.34794 44.1025 11.9003C47.468 19.2326 50.127 26.6178 45.9285 34.4726C40.4378 39.0404 34.3528 42.9259 28.6219 47.2254C27.7552 47.8188 26.8717 48.3722 25.7536 47.7169Z" fill="#06BCEC"/>
<path fill-rule="evenodd" clip-rule="evenodd" d="M44.2992 33.6418C49.2983 30.4517 45.8499 26.0863 45.7782 22.3905C45.7094 19.043 43.8061 15.7238 42.7119 12.3905C41.7792 9.1823 39.491 6.15211 41.1822 2.59948C42.2104 2.56207 43.2386 2.52982 44.2711 2.49241C47.9063 7.15056 46.2376 13.1477 48.9233 18.0471C51.8604 25.0995 47.7897 32.0319 48.4106 39.0817C48.558 40.7896 45.708 40.8774 44.1264 41.4385C41.0853 42.5169 38.2114 43.1529 36.9177 46.7778C35.9303 49.5512 21.7602 50.9754 18.0112 49.2468C20.5915 48.7386 23.1704 48.229 25.7536 47.7169C26.2803 47.2809 26.8043 46.8449 27.3282 46.4075C33.9118 43.9604 38.1777 40.7522 44.2992 33.6418Z" fill="#9ADAEE"/>
<path fill-rule="evenodd" clip-rule="evenodd" d="M41.1822 2.59948C43.4016 5.63483 42.5939 9.07523 42.7119 12.3905C36.1985 5.56388 29.334 0.157529 18.6475 5.8825C16.8355 6.85516 14.1779 6.48622 11.9108 6.73906C11.6973 6.53653 11.4852 6.334 11.2731 6.13276C10.9598 5.26718 11.0694 4.50222 11.9164 3.92043C14.8015 1.08761 17.9269 -0.776424 22.2293 1.57781C24.5287 2.83684 26.5781 1.54298 28.8129 1.13147C33.003 0.365217 37.6018 -1.59686 41.1822 2.59948Z" fill="#5FCBEA"/>
<path fill-rule="evenodd" clip-rule="evenodd" d="M48.9233 18.0471C44.4045 13.6095 44.7163 7.95423 44.2711 2.49241C49.0469 2.28472 50.2099 4.50608 49.5202 8.5244C48.9837 11.6488 49.0974 14.8686 48.9233 18.0471Z" fill="#C7E9F4"/>
<path fill-rule="evenodd" clip-rule="evenodd" d="M4.23859 18.051C6.72903 24.5551 5.5084 29.5009 1.09359 30.7948C-1.33364 25.8245 3.65005 22.3944 4.23859 18.051Z" fill="#5FCBEA"/>
<path fill-rule="evenodd" clip-rule="evenodd" d="M11.9108 6.73906C11.3939 10.9289 10.5609 14.9447 5.39461 16.5275C5.47889 13.3722 7.3878 10.8361 8.78402 8.12451C9.6549 7.38534 10.096 5.88895 11.8265 6.67456L11.9108 6.73906Z" fill="#5FCBEA"/>
<path fill-rule="evenodd" clip-rule="evenodd" d="M11.8265 6.67456C10.8095 7.15831 9.79537 7.63947 8.78403 8.12451C8.79948 6.07472 8.68992 3.94881 11.9164 3.92043C11.8869 4.8402 11.8546 5.75738 11.8265 6.67456Z" fill="#9ADAEE"/>
<path fill-rule="evenodd" clip-rule="evenodd" d="M19.5984 9.55511C23.2856 9.50738 26.6259 10.7574 29.8088 12.1996C36.7112 15.333 39.3112 21.027 36.2266 25.6839C32.1251 31.8835 22.6577 34.212 17.0097 29.9357C13.3112 27.139 14.7257 23.0549 15.855 19.4687C16.9127 16.1121 18.3356 12.8536 19.5984 9.55511Z" fill="#04A1BB"/>
<path fill-rule="evenodd" clip-rule="evenodd" d="M44.2991 33.6418C40.4954 39.9718 36.4303 46.0141 27.3282 46.4075C32.9875 42.1532 38.6426 37.8975 44.2991 33.6418Z" fill="#81D2E3"/>
<path d="M39.3183 17.8368C38.6398 18.0097 38.1075 17.9826 38.1075 17.9826L38.1285 17.8652C38.7592 17.4008 40.3493 15.978 40.56 15.3123C40.6513 15.026 40.5431 14.9266 40.5431 14.9163L38.512 15.7097L36.811 16.4127C35.6381 15.2723 33.8626 14.5461 31.8764 14.5461C28.3423 14.5461 25.4783 16.8448 25.4783 19.6815C25.4783 20.2001 25.5625 21.1457 25.7395 21.6191C25.7395 21.7674 25.7452 21.4695 25.7395 21.6191C23.464 21.561 20.548 20.7045 17.9508 19.4958C12.828 17.1119 12.5063 15.462 12.5063 15.462C11.7015 16.2463 11.2871 18.8443 12.1018 20.8825C12.6243 22.1854 14.4195 23.3567 14.4195 23.3567C14.4195 23.3567 13.6174 23.3696 12.776 23.109C11.9347 22.8472 11.6172 22.5892 11.6172 22.5892C11.1172 23.7089 12.1201 25.7084 13.8534 27.1428C14.8648 27.98 16.7091 28.5038 16.7091 28.5038L13.8267 28.5786C13.6638 31.1521 19.7038 32.6808 19.7038 32.6808C17.9339 33.9308 15.8789 34.6919 13.6778 34.6919C12.5372 34.6919 11.436 34.5358 10.3881 34.2494C13.2972 36.4501 17.0349 37.9697 21.1 37.7736C31.8821 37.2525 37.9698 28.7398 38.2592 20.3794L38.2732 20.3975C38.2732 20.3975 38.7789 20.1653 39.8591 19.1733C40.9392 18.1813 41.6106 17.0203 41.6106 17.0203C41.6106 17.0203 39.9953 17.6653 39.3183 17.8368Z" fill="white"/>
<path d="M40.5431 14.9163C40.5487 15.075 40.5431 14.9331 40.5431 14.9163Z" fill="white"/>
</svg>
