<svg width="126" height="107" viewBox="0 0 126 107" fill="none" xmlns="http://www.w3.org/2000/svg">
<rect width="126" height="107" fill="#E6E4D3"/>
<path d="M60.6758 6.08463C57.7752 5.7287 54.6348 6.48182 52.5766 8.60087C51.5802 9.62635 50.8721 10.9226 49.8309 11.9012C48.663 12.9984 47.1483 13.6308 45.9052 14.6372C43.7107 16.4132 42.5064 19.388 42.8305 22.2282C42.9758 23.5018 43.4043 24.7836 43.1434 26.0371C42.8426 27.4815 41.7034 28.5554 40.8257 29.7284C38.7746 32.467 38.0387 36.1867 38.8876 39.5247C39.5589 42.1642 41.1669 44.7712 40.5113 47.4144C39.9066 49.8512 37.5935 51.3687 36.1359 53.3939C33.4589 57.1146 33.8606 62.2013 34.4194 66.7834C34.487 67.3364 34.5743 67.9317 34.9584 68.3284C35.3203 68.7013 35.8623 68.8096 36.3716 68.8849C44.9932 70.1611 53.805 67.1631 62.4357 68.3748C62.8279 68.43 63.2665 68.4826 63.5844 68.2417C63.8964 68.0044 63.9771 67.5696 64.0341 67.177C64.2699 65.5609 64.5056 63.9458 64.7342 62.3292C66.5174 49.7217 67.8705 37.0507 68.7901 24.3472C69.104 20.0204 69.74 15.2304 69.0818 10.9144C68.5968 7.73685 63.3805 6.41579 60.6758 6.08463" fill="#332228"/>
<path d="M74.881 11.0882C76.6803 12.1189 78.0103 13.9052 78.4615 15.8973C78.7739 17.2803 78.7391 18.8686 79.7495 19.8827C80.1755 20.3103 80.7388 20.5749 81.2354 20.9226C82.9429 22.1183 83.761 24.2791 83.6788 26.3322C83.5773 28.8572 82.2994 31.4812 83.3204 33.8025C83.9523 35.2381 85.3398 36.2016 86.2786 37.4665C88.1975 40.0513 88.036 43.6312 87.0074 46.6638C86.4179 48.4011 85.582 50.3386 86.4381 51.9666C87.1083 53.2417 88.6225 53.871 89.4931 55.025C90.4551 56.2986 90.498 58.0189 90.3158 59.5927C90.067 61.7437 89.4689 63.8555 88.5518 65.825C88.3484 66.2604 88.1152 66.7071 87.7155 66.9825C87.2199 67.3235 86.5708 67.3369 85.9646 67.3369C79.8111 67.3369 73.6581 67.3369 67.5051 67.3369C66.8353 67.3369 66.0843 67.3044 65.6255 66.8268C65.3691 66.5606 65.251 66.1969 65.1476 65.8451C63.8217 61.3445 63.6152 56.6086 63.5032 51.9253C63.1943 39.0429 63.5582 25.9829 67.1175 13.5766C67.5111 12.2029 67.9669 10.5884 69.5229 10.2201C71.2895 9.80173 73.3321 10.201 74.881 11.0882" fill="#332228"/>
<path d="M36.2596 97.9394L36.1344 106.718L47.5041 106.878L46.3171 98.4186L36.2596 97.9394Z" fill="#F18595"/>
<path d="M91.0461 96.726L91.1713 106.697L79.8015 106.878L80.9881 97.2702L91.0461 96.726" fill="#F18595"/>
<path d="M54.1356 55.4562C54.1356 55.4562 45.6301 57.8435 40.7571 62.0574L47.5041 106.878H79.9893L85.4867 60.9081C85.4867 60.9081 82.4876 58.3547 78.5518 56.8222C74.6166 55.2896 70.9932 54.779 70.9932 54.779L54.1356 55.4562" fill="#D8DFB2"/>
<path d="M85.4866 60.908C85.4866 60.908 88.2353 64.228 90.609 71.1236C92.9827 78.0193 95.9817 86.8302 95.9817 86.8302L81.2384 92.5761L85.4866 60.908" fill="#D8DFB2"/>
<path d="M99.7611 88.3495C100.956 89.4507 100.745 91.883 99.214 92.3906C98.5467 92.6124 97.7462 92.473 97.1971 92.9203C96.6126 93.3958 96.6096 94.2758 96.4547 95.0227C96.0766 96.8489 94.3863 98.3009 92.5613 98.3674C91.0375 98.4226 89.433 97.6335 88.0456 98.2794C87.2128 98.6666 86.5551 99.5436 85.6401 99.5462C84.349 99.5504 83.4365 97.7851 82.1681 98.0343C81.9435 98.0786 81.722 98.1881 81.4964 98.1482C81.2001 98.0966 81.0058 97.8098 80.866 97.5381C79.7369 95.3276 80.1619 92.3966 81.8699 90.6166C83.1216 89.3115 84.879 88.6693 86.597 88.1643C90.7832 86.9346 96.1115 84.9863 99.7611 88.3495" fill="#D8DFB2"/>
<path d="M40.7571 62.0574C40.7571 62.0574 37.8837 66.7824 34.8852 77.1249C31.8862 87.4684 31.2618 90.9162 31.2618 90.9162L46.5048 96.4068L40.7571 62.0574Z" fill="#D8DFB2"/>
<path d="M26.2323 94.1613C25.6711 94.6474 25.0897 95.222 25.0094 95.9694C24.8671 97.3033 26.3671 98.1951 27.6693 98.367C28.9719 98.5393 30.4215 98.4109 31.4572 99.2367C32.6115 100.157 32.8921 102.021 34.221 102.648C36.4347 103.693 38.927 100.281 41.1417 101.323C42.2869 101.861 42.7371 103.39 43.8813 103.93C45.1471 104.528 46.7017 103.554 47.2417 102.24C47.7823 100.927 47.5768 99.4281 47.2917 98.0333C47.0963 97.0738 46.8556 96.0957 46.2974 95.2998C45.5938 94.2949 44.4703 93.6981 43.367 93.1937C40.3977 91.835 37.2619 90.8854 34.0529 90.3437C32.3273 90.0522 31.7539 90.2188 30.2408 91.1788C28.8347 92.0702 27.4936 93.0678 26.2323 94.1613" fill="#D8DFB2"/>
<path d="M63.1963 77.9264C63.1973 77.9281 63.5708 78.482 64.1588 79.3915C65.9228 82.1186 69.6082 88.0344 70.8519 91.6605C71.6821 94.0773 72.2863 97.8852 72.6815 101.086C72.8793 102.686 73.0252 104.136 73.1216 105.185C73.2175 106.234 73.2644 106.881 73.2644 106.882L73.33 106.94L73.3866 106.873C73.3855 106.87 72.6381 96.4878 70.9675 91.6195C69.2953 86.7504 63.2983 77.8583 63.2973 77.8559L63.212 77.8398L63.1963 77.9264" fill="#684D5A"/>
<path d="M46.7789 74.9378C46.7784 74.9404 44.9917 81.4367 44.9912 86.5348C44.9912 86.9428 45.0028 87.3414 45.0275 87.7279C45.3611 92.9276 47.4436 106.886 47.4436 106.887L47.5133 106.94L47.5647 106.868C47.5642 106.866 47.4345 105.996 47.2341 104.606C46.633 100.437 45.399 91.6089 45.1497 87.7196C45.1249 87.3368 45.1138 86.9403 45.1138 86.5348C45.1133 84 45.559 81.1077 46.0051 78.8503C46.2282 77.7217 46.4508 76.7515 46.6184 76.0638C46.7855 75.3763 46.8965 74.9723 46.897 74.9712L46.8546 74.8945L46.7789 74.9378" fill="#684D5A"/>
<path d="M80.6792 73.69C80.6792 73.6916 80.7711 74.1439 80.9094 74.9047C81.3248 77.1863 82.155 82.227 82.155 86.0132C82.155 86.5868 82.1359 87.1317 82.0935 87.6334C81.8855 90.1001 81.344 94.9103 80.8549 99.1025C80.6106 101.198 80.379 103.14 80.2084 104.559C80.0378 105.976 79.9287 106.868 79.9287 106.87L79.9817 106.94L80.0499 106.886C80.0499 106.885 81.7987 92.585 82.2156 87.6443C82.258 87.1377 82.2772 86.5901 82.2772 86.0132C82.2772 80.9426 80.7989 73.6667 80.7989 73.6647L80.7267 73.6162L80.6792 73.69" fill="#684D5A"/>
<path d="M40.7167 62.1043C40.7167 62.1043 40.7722 62.1554 40.8757 62.2591C41.5984 62.9864 44.6071 66.2604 46.2797 71.9077L46.3559 71.9496L46.3968 71.8716C44.4758 65.3861 40.803 62.0156 40.798 62.0109L40.7117 62.0156L40.7167 62.1043Z" fill="#684D5A"/>
<path d="M84.4333 60.2813C84.4323 60.2849 81.347 65.906 80.6782 71.3713L80.7312 71.441L80.7999 71.3868C81.1315 68.6714 82.0667 65.9091 82.9192 63.8267C83.3452 62.7852 83.751 61.914 84.0498 61.3032C84.3485 60.6925 84.5398 60.3438 84.5403 60.3427L84.5166 60.2576L84.4333 60.2813Z" fill="#684D5A"/>
<path d="M81.7533 92.2114C81.7563 92.21 90.9184 89.8289 95.8485 86.4992L95.8657 86.4125L95.7814 86.395C93.333 88.0493 89.8161 89.4751 86.914 90.4846C85.4624 90.9899 84.1648 91.3914 83.2296 91.6662C82.2943 91.9419 81.7245 92.0897 81.723 92.0903L81.6786 92.1661L81.7533 92.2114Z" fill="#684D5A"/>
<path d="M31.4779 90.3299C31.4824 90.3323 38.1507 94.85 45.9183 95.2777L45.9824 95.2184L45.9249 95.1529C42.0623 94.9407 38.4662 93.709 35.8361 92.5298C34.5213 91.9402 33.4483 91.3639 32.7038 90.9347C32.3319 90.7208 32.0421 90.5432 31.8453 90.4195C31.6485 90.2958 31.546 90.2261 31.5455 90.2255L31.4607 90.243L31.4779 90.3299Z" fill="#684D5A"/>
<path d="M68.3136 99.9469L68.3555 99.9016C66.8944 98.5115 65.1904 97.161 63.1781 97.0067C63.0888 96.9994 62.9985 96.9958 62.9071 96.9958C62.4635 96.9958 62.0062 97.0873 61.666 97.3909C61.3369 97.6851 61.2047 98.0895 61.2052 98.5151C61.2062 99.1341 61.4767 99.8061 61.828 100.323C63.055 102.124 64.9426 103.312 66.8076 104.369C67.8978 104.988 69.0031 105.58 70.1205 106.147C70.8791 106.53 71.8648 106.999 72.793 107C72.9782 107 73.1609 106.981 73.3391 106.939L73.3866 106.877C73.3654 105.637 72.0253 104.122 71.3324 103.19C70.443 102.001 69.424 100.919 68.3555 99.9016L68.3136 99.9469L68.2723 99.9929C69.3377 101.007 70.3512 102.085 71.2355 103.266C71.936 104.198 73.2548 105.723 73.2644 106.879L73.3255 106.878L73.3113 106.817C73.1438 106.856 72.9702 106.875 72.793 106.875C71.9052 106.876 70.9301 106.418 70.175 106.035C69.0591 105.469 67.9558 104.878 66.8666 104.26C65.0047 103.205 63.1347 102.025 61.9285 100.251C61.5883 99.7521 61.3273 99.0964 61.3278 98.5151C61.3283 98.1141 61.4485 97.752 61.7468 97.4849C62.0526 97.2104 62.4786 97.1207 62.9071 97.1207C62.9949 97.1207 63.0827 97.1243 63.1691 97.131C65.1309 97.2801 66.8161 98.6064 68.2723 99.9929L68.3136 99.9469" fill="#684D5A"/>
<path d="M77.1119 97.7748L77.1654 97.8042C77.7256 96.7447 78.3364 95.6903 79.2191 94.9109C79.4518 94.7036 79.7692 94.5204 80.0413 94.522C80.1554 94.522 80.2613 94.5518 80.3577 94.6236C80.4733 94.7086 80.5521 94.8475 80.6202 94.9929C80.9261 95.6403 81.0623 96.35 81.0623 97.0702C81.0628 97.913 80.8756 98.7694 80.5561 99.5508C79.9651 101.001 78.9597 102.238 77.9028 103.393C77.1286 104.24 76.3195 105.054 75.4791 105.834C75.031 106.254 74.017 106.829 73.4512 106.825L73.3351 106.816L73.3255 106.878L73.3861 106.887C73.8307 103.868 75.7492 100.482 77.1654 97.8042L77.1119 97.7748L77.0579 97.745C75.6432 100.422 73.7172 103.813 73.265 106.868L73.3154 106.94C73.3588 106.947 73.4043 106.95 73.4512 106.95C74.0836 106.946 75.0855 106.364 75.5614 105.927C76.4038 105.145 77.2154 104.328 77.9926 103.478C79.052 102.32 80.068 101.072 80.6692 99.5988C80.9942 98.8039 81.185 97.9321 81.185 97.0702C81.185 96.3341 81.0457 95.6053 80.7302 94.9387C80.6596 94.7886 80.5738 94.6302 80.4299 94.5224C80.3113 94.4342 80.1766 94.3967 80.0413 94.3967C79.7173 94.3981 79.3862 94.5988 79.1388 94.816C78.2364 95.6139 77.6197 96.6827 77.0579 97.745L77.1119 97.7748" fill="#684D5A"/>
<path d="M71.7427 54.9703C71.7427 54.9703 70.2659 62.5139 62.461 62.5139C54.656 62.5139 54.1357 55.4562 54.1357 55.4562C54.1357 55.4562 55.1764 54.3699 56.2171 51.655C56.8778 49.9342 57.539 47.1167 57.9286 45.2922C58.1577 44.2389 58.2986 43.5116 58.2986 43.5116H67.6641C67.6641 43.5116 67.7888 44.1687 67.9765 45.2221C68.1744 46.3131 68.4393 47.8276 68.7048 49.4834C69.2252 52.7414 71.7427 54.9703 71.7427 54.9703" fill="#F18595"/>
<path d="M67.9765 45.2221C67.5758 46.5575 66.8737 47.7899 65.9314 48.7834C65.5513 49.1847 65.1304 49.5489 64.6464 49.7934C63.0071 50.6187 60.9519 49.8687 59.7032 48.4955C58.876 47.5835 58.3399 46.4539 57.9286 45.2922C57.8928 45.1834 57.8559 45.0802 57.8196 44.9719C57.6222 44.3745 57.2735 43.8051 57.7676 43.5064C58.0644 43.3269 59.0112 43.4734 59.573 43.5115C59.6875 43.5224 59.7865 43.5275 59.8596 43.5224C59.8904 43.5224 59.9268 43.5167 59.9843 43.5115H67.6641C67.6641 43.5115 67.7888 44.1687 67.9765 45.2221" fill="#F25889"/>
<path d="M54.1357 55.4562C54.1357 55.4562 54.5011 63.7173 58.2491 69.7191C61.9971 75.7209 63.2468 77.8914 63.2468 77.8914C63.2468 77.8914 70.9523 62.16 71.7427 54.9703L54.1357 55.4562Z" fill="#F18595"/>
<path d="M55.2304 53.6632L63.3619 66.5606L63.4164 66.589L63.4679 66.5554L70.2356 53.0839L70.2094 52.9993L70.1271 53.0266L63.4073 66.4017L55.3333 53.5956L55.2486 53.577L55.2304 53.6632" fill="#FCD7B4"/>
<path d="M64.4546 67.6547H64.3935C64.3925 68.2433 63.9267 68.7189 63.3513 68.7199C62.7754 68.7189 62.3095 68.2433 62.3085 67.6547C62.3095 67.0661 62.7754 66.5905 63.3513 66.5895C63.9267 66.5905 64.3925 67.0661 64.3935 67.6547H64.4546H64.5157C64.5157 66.997 63.9943 66.4641 63.3513 66.4641C62.7078 66.4641 62.1859 66.997 62.1859 67.6547C62.1859 68.3124 62.7078 68.8452 63.3513 68.8452C63.9943 68.8452 64.5157 68.3124 64.5157 67.6547H64.4546Z" fill="#FCD7B4"/>
<path d="M76.0444 34.6707C76.0066 34.8419 75.9606 35.0219 75.9142 35.1932C74.7887 39.4411 72.0279 43.527 68.2248 45.6265C64.1805 47.8595 59.2903 46.9192 55.9249 43.8118C53.1913 41.2842 51.3875 37.597 50.5784 33.7679C50.1509 31.8202 49.9929 29.8244 50.0954 27.9333C50.4396 21.5102 53.7213 14.4123 59.8667 12.0838C61.3915 11.504 63.0929 11.2007 64.7852 11.2383C66.7929 11.2863 68.783 11.8181 70.4193 12.9586C72.7436 14.5737 74.3985 17.0348 75.356 19.7238C77.0019 24.3416 77.1689 29.9007 76.0444 34.6707" fill="#F18595"/>
<path d="M75.7214 30.171C75.9621 29.1223 77.5813 27.8446 78.3631 27.5583C80.6717 26.7113 82.0354 29.9337 81.4954 32.2411C81.0325 34.2219 79.5855 36.0866 77.9628 36.8124C77.4455 37.0435 74.0684 37.3582 74.0437 37.4691L75.7214 30.171" fill="#F18595"/>
<path d="M76.6344 31.0041C76.8287 30.234 77.175 29.4819 77.769 29.0068C78.1142 28.7303 78.565 28.5658 78.9975 28.5663C79.3029 28.5663 79.5981 28.6467 79.8464 28.8221C80.2083 29.0764 80.442 29.5066 80.5409 29.9595C80.5899 30.1824 80.6091 30.4119 80.6091 30.6446C80.6091 30.8849 80.5884 31.1279 80.5586 31.3703C80.3658 32.9271 79.7531 34.4937 78.5624 35.447C78.093 35.8246 77.497 36.0923 76.9277 36.0918C76.7192 36.0918 76.5138 36.0562 76.3169 35.9783C76.2599 35.9556 76.1953 35.9845 76.1736 36.0428C76.1514 36.1016 76.1796 36.1671 76.2367 36.1898C76.4613 36.2785 76.6945 36.3182 76.9277 36.3182C77.5646 36.3172 78.199 36.0263 78.6992 35.6255C79.9544 34.6175 80.5803 32.9932 80.7786 31.3987C80.8089 31.1506 80.8306 30.8978 80.8306 30.6446C80.8306 30.399 80.8104 30.153 80.7574 29.91C80.6484 29.4148 80.393 28.933 79.9726 28.6354C79.6819 28.4306 79.3407 28.3398 78.9975 28.3398C78.5109 28.3403 78.0173 28.5204 77.6322 28.8283C76.9817 29.3509 76.6218 30.1514 76.4199 30.9468C76.4048 31.0077 76.4401 31.0696 76.4996 31.0851C76.5587 31.1011 76.6193 31.0645 76.6344 31.0041" fill="#281B1E"/>
<path d="M77.922 28.7014C77.494 30.0885 77.2785 31.5432 77.2785 32.9978C77.2785 34.0259 77.386 35.0534 77.6025 36.0577C77.6156 36.1191 77.6747 36.1578 77.7347 36.1444C77.7943 36.131 77.8321 36.0701 77.819 36.0093C77.606 35.0214 77.5 34.0094 77.5 32.9978C77.5 31.5664 77.7125 30.1344 78.1334 28.7695C78.1516 28.7097 78.1193 28.6462 78.0608 28.6271C78.0027 28.6086 77.9401 28.6416 77.922 28.7014Z" fill="#281B1E"/>
<path d="M75.4695 36.114C75.467 36.1238 74.7962 37.2524 74.7912 38.1866C74.7912 38.4342 74.8402 38.6741 74.9749 38.8732C75.1097 39.0718 75.3297 39.2177 75.6331 39.2802C75.7436 39.3034 75.8491 39.3147 75.9495 39.3147C76.32 39.3157 76.6157 39.1589 76.8328 38.933C77.4778 38.2547 77.5237 37.0038 77.5293 36.9929C77.5328 36.9238 77.4808 36.8655 77.4132 36.8619C77.3456 36.8583 77.288 36.9114 77.285 36.98C77.285 36.9806 77.2835 37.0115 77.2779 37.0693C77.2593 37.2725 77.1916 37.7899 76.9908 38.2418C76.8903 38.4682 76.7576 38.6766 76.5885 38.8247C76.4184 38.9722 76.215 39.0635 75.9495 39.0645C75.8667 39.0645 75.7779 39.0552 75.6825 39.0351C75.4251 38.9805 75.2732 38.8716 75.1758 38.7303C75.0789 38.5884 75.036 38.4017 75.036 38.1866C75.035 37.7796 75.194 37.2875 75.3565 36.9032C75.4372 36.7108 75.5185 36.5447 75.5796 36.4271C75.6401 36.3095 75.6795 36.2424 75.6795 36.2424C75.7143 36.1831 75.6951 36.1062 75.6371 36.0706C75.5791 36.0356 75.5039 36.0546 75.4695 36.114" fill="#FCD7B4"/>
<path d="M50.5239 29.6144C50.2826 28.5657 48.6635 27.288 47.8817 27.0012C45.5731 26.1547 44.2099 29.3772 44.7494 31.6845C45.2127 33.6653 46.6598 35.53 48.2819 36.2558C48.7998 36.4869 52.1763 36.8011 52.2016 36.9125L50.5239 29.6144" fill="#F18595"/>
<path d="M49.8253 30.3903C49.6235 29.5943 49.2636 28.7943 48.613 28.2717C48.2279 27.9638 47.7343 27.7837 47.2478 27.7832C46.9046 27.7832 46.5634 27.874 46.2726 28.0788C45.8517 28.3764 45.5963 28.8582 45.4878 29.3534C45.4348 29.5964 45.4141 29.8424 45.4141 30.088C45.4141 30.3413 45.4358 30.594 45.4666 30.8421C45.665 32.4366 46.2903 34.0609 47.5455 35.0689C48.0462 35.4697 48.6807 35.7606 49.3171 35.7616C49.5503 35.7616 49.784 35.7219 50.0081 35.6332C50.0651 35.6105 50.0939 35.5445 50.0717 35.4862C50.0494 35.4279 49.9853 35.399 49.9283 35.4217C49.7315 35.4996 49.5261 35.5352 49.3171 35.5352C48.7483 35.5357 48.1522 35.268 47.6828 34.8904C46.4917 33.9371 45.879 32.3705 45.6867 30.8138C45.6569 30.5713 45.6357 30.3284 45.6357 30.088C45.6357 29.8553 45.6554 29.6258 45.7043 29.4029C45.8033 28.95 46.0369 28.5198 46.3988 28.2655C46.6471 28.0901 46.9419 28.0097 47.2478 28.0097C47.6803 28.0092 48.131 28.1732 48.4762 28.4502C49.0698 28.9253 49.416 29.6774 49.6108 30.447C49.626 30.5079 49.6866 30.544 49.7456 30.5285C49.8052 30.513 49.8405 30.4511 49.8253 30.3903" fill="#281B1E"/>
<path d="M48.1118 28.2129C48.5327 29.5778 48.7447 31.0098 48.7447 32.4417C48.7447 33.4533 48.6392 34.4648 48.4263 35.4527C48.4131 35.5135 48.451 35.5739 48.5105 35.5878C48.5706 35.6012 48.6297 35.5625 48.6428 35.5012C48.8593 34.4973 48.9668 33.4693 48.9668 32.4417C48.9668 30.9871 48.7513 29.5324 48.3233 28.1448C48.3046 28.085 48.2425 28.052 48.184 28.0706C48.1255 28.0896 48.0931 28.1531 48.1118 28.2129" fill="#281B1E"/>
<path d="M50.6385 35.7972C50.6385 35.7972 50.6627 35.8628 50.7005 35.9793C50.8146 36.3286 51.0422 37.1271 51.0417 37.8451C51.0422 38.2212 50.9787 38.5714 50.8207 38.8221C50.6617 39.0712 50.4189 39.2379 49.9955 39.2667L49.8799 39.2704C49.3519 39.2662 49.0673 39.0439 48.882 38.7143C48.6993 38.3836 48.6403 37.9344 48.6413 37.5253C48.6413 37.2436 48.668 36.9811 48.6948 36.7902C48.7084 36.6948 48.7215 36.6174 48.7316 36.5638C48.7417 36.5106 48.7483 36.4828 48.7478 36.4828C48.7629 36.4152 48.7221 36.3482 48.6559 36.3327C48.5903 36.3172 48.5247 36.3595 48.5096 36.4266C48.5086 36.4322 48.3965 36.9295 48.3965 37.5253C48.397 37.9576 48.4535 38.443 48.6686 38.8371C48.8815 39.2322 49.2777 39.5247 49.8799 39.5205L50.0106 39.5164C50.4941 39.4891 50.8318 39.2719 51.0266 38.9567C51.2224 38.6431 51.286 38.248 51.2865 37.8451C51.285 36.8207 50.8686 35.7152 50.8671 35.708C50.8429 35.6435 50.7722 35.611 50.7091 35.6358C50.646 35.6606 50.6142 35.7328 50.6385 35.7972" fill="#FCD7B4"/>
<path d="M59.362 28.7009C59.3312 29.2508 58.8699 29.6707 58.3324 29.6392C57.7943 29.6072 57.3835 29.1357 57.4143 28.5864C57.4456 28.037 57.9064 27.6171 58.4439 27.6486C58.9819 27.6806 59.3928 28.1515 59.362 28.7009Z" fill="#281B1E"/>
<path d="M69.9378 28.9279C69.9065 29.4772 69.4457 29.8976 68.9082 29.8657C68.3702 29.8342 67.9593 29.3632 67.9906 28.8134C68.0214 28.264 68.4827 27.8436 69.0208 27.8756C69.5578 27.907 69.9686 28.378 69.9378 28.9279Z" fill="#281B1E"/>
<path d="M62.7709 26.0619C63.1989 27.1359 63.4134 28.2965 63.4134 29.4566C63.4134 30.5223 63.2322 31.588 62.8693 32.5867C62.6745 33.1257 62.413 33.6957 62.4115 34.2988C62.4115 34.4107 62.4206 34.5237 62.4418 34.6371C62.5826 35.3887 63.1706 35.9195 63.7 36.3843C63.747 36.425 63.8166 36.4194 63.8565 36.3719C63.8964 36.3239 63.8908 36.2527 63.8444 36.212C63.3134 35.7508 62.7759 35.2438 62.6598 34.5954C62.6416 34.4963 62.6331 34.3978 62.6331 34.2988C62.6321 33.7654 62.8763 33.215 63.0772 32.6656C63.4497 31.6407 63.6349 30.5486 63.6349 29.4566C63.6349 28.2676 63.4154 27.0786 62.9763 25.9763C62.9536 25.9185 62.8885 25.8906 62.8319 25.9144C62.7754 25.9376 62.7482 26.0041 62.7709 26.0619" fill="#281B1E"/>
<path d="M54.4304 25.1128C54.6636 24.5459 55.0623 24.1136 55.5347 23.7664C56.0087 23.4244 56.5719 23.1908 57.1609 23.101C57.7474 23.0107 58.3606 23.0422 58.9133 23.2382C59.471 23.4136 59.9666 23.7375 60.3533 24.1652C60.4305 24.2498 60.4249 24.3829 60.3422 24.4618C60.3038 24.4979 60.2548 24.5165 60.2064 24.517L60.1882 24.5175C59.634 24.5263 59.1636 24.4654 58.7018 24.4845C58.2456 24.4721 57.8145 24.5232 57.387 24.583C56.9595 24.6454 56.5326 24.7465 56.0924 24.8848C55.6498 25.0142 55.1966 25.1943 54.7014 25.3676L54.6727 25.3779C54.5712 25.4135 54.4602 25.3583 54.4259 25.2546C54.4092 25.2066 54.4127 25.1561 54.4304 25.1128" fill="#281B1E"/>
<path d="M72.2131 25.6234C71.7175 25.4501 71.2642 25.2696 70.8216 25.1401C70.382 25.0019 69.955 24.9008 69.527 24.8383C69.1 24.7785 68.6685 24.7274 68.2122 24.7398C67.7504 24.7212 67.28 24.7816 66.7263 24.7728L66.7081 24.7723C66.5951 24.7708 66.5047 24.6758 66.5062 24.5598C66.5073 24.5061 66.528 24.4571 66.5608 24.4205C66.9479 23.9929 67.4435 23.6689 68.0012 23.4936C68.5539 23.2975 69.1671 23.2661 69.7536 23.3563C70.3426 23.4461 70.9054 23.6798 71.3793 24.0218C71.8522 24.3689 72.2504 24.8012 72.4841 25.3681C72.5255 25.4697 72.4791 25.5858 72.3802 25.6286C72.3342 25.6482 72.2853 25.6487 72.2419 25.6332L72.2131 25.6234" fill="#281B1E"/>
<path d="M76.2539 33.4775C76.2539 33.4775 75.7007 37.3638 73.4941 41.0196C73.4446 41.0897 73.4007 41.1645 73.3522 41.2398C72.0107 43.3903 70.0781 45.4361 67.338 46.5261C67.2593 46.5565 67.1811 46.5859 67.1028 46.6164C65.9824 47.0311 64.7246 47.2864 63.32 47.3267C63.2761 47.3318 63.2271 47.3318 63.1781 47.3318H63.0656C58.7397 47.3762 55.9455 45.1158 54.1498 42.3948C54.1003 42.3205 54.0518 42.2452 54.0074 42.1704C53.4694 41.3249 53.0242 40.4444 52.6619 39.5742C52.6275 39.4994 52.5983 39.4194 52.5639 39.3441C51.2769 36.1738 51.0129 33.2624 51.0129 33.2624C51.0129 33.2624 53.7384 31.7423 58.0008 30.952C58.0987 30.9324 58.1966 30.9118 58.299 30.8968C59.7329 30.6471 61.3334 30.4816 63.056 30.4867C63.1388 30.4867 63.2221 30.4867 63.3053 30.4919C63.3785 30.4867 63.4522 30.4919 63.5254 30.4919C68.2334 30.5821 72.1626 31.7969 74.3602 32.6475C74.4434 32.6826 74.5262 32.7125 74.6044 32.7425C75.6618 33.168 76.2539 33.4775 76.2539 33.4775" fill="#F5BAD7"/>
<path d="M79.6092 27.4897C79.2857 27.385 78.9354 27.3866 78.617 27.4758C78.3676 27.4062 78.1233 27.416 77.8881 27.5011C76.3417 28.0613 75.3878 31.8325 75.1475 33.2428L74.6681 33.1577C74.7024 32.9375 75.5932 27.8013 77.7271 27.026C78.3384 26.8062 78.9582 26.9894 79.6092 27.4897" fill="#F5BAD7"/>
<path d="M78.7199 36.3636C77.4571 38.3537 73.9196 40.0395 73.7631 40.1096L73.5577 39.6546C73.5915 39.6392 76.2145 38.3893 77.6974 36.8537C78.1133 36.7237 78.4948 36.5034 78.7199 36.3636" fill="#F5BAD7"/>
<path d="M46.7233 26.9099C47.0565 26.8351 47.3941 26.8568 47.7126 26.9471C47.9619 26.8769 48.1805 26.9264 48.4157 27.0115C49.9621 27.5717 51.0023 31.7773 51.2421 33.1881L51.7211 32.9859C51.6867 32.7657 50.7106 27.3118 48.5772 26.5365C47.9655 26.3162 47.3739 26.4096 46.7233 26.9099" fill="#F5BAD7"/>
<path d="M47.5839 35.8741C48.8462 37.8647 52.5846 39.6944 52.7416 39.7645L52.7936 39.1043C52.7593 39.0893 50.0893 37.8993 48.6065 36.3641C48.1906 36.2342 47.809 36.0139 47.5839 35.8741" fill="#F5BAD7"/>
<path d="M73.4941 41.0196C73.4446 41.0897 73.4007 41.1645 73.3522 41.2398C73.269 41.2145 73.1806 41.2001 73.0873 41.18C72.9358 41.1444 72.7844 41.115 72.6325 41.0598C72.1041 40.8596 71.7467 40.4047 71.404 39.9642C71.3157 39.8543 71.2329 39.7444 71.1451 39.6443C70.6359 39.0393 70.0438 38.6194 69.4321 38.429C68.727 38.2139 67.9836 38.314 67.4551 38.704C66.3054 39.5339 66.4174 41.3301 66.589 42.3298C66.6718 42.8301 66.7849 43.3351 66.8924 43.8303C67.0831 44.7104 67.279 45.6156 67.338 46.5261C67.2593 46.5565 67.1811 46.5859 67.1028 46.6164C67.0488 45.7008 66.8535 44.7753 66.6526 43.8855C66.5446 43.3903 66.4326 42.8755 66.3442 42.37C66.1681 41.3146 66.0555 39.4091 67.3133 38.4987C67.9053 38.0685 68.7225 37.9488 69.5053 38.1892C70.1609 38.394 70.7923 38.8391 71.3308 39.4793C71.4187 39.5845 71.507 39.6944 71.5948 39.8094C71.9183 40.2195 72.2509 40.6451 72.7158 40.8246C72.848 40.8746 72.9899 40.8999 73.1367 40.9344C73.2538 40.9597 73.376 40.985 73.4941 41.0196" fill="#FCD7B4"/>
<path d="M74.6045 32.7425C74.663 33.9779 74.2032 35.3082 73.2341 36.7087C72.7254 37.4438 72.2015 37.8137 71.6781 37.8137C71.6292 37.8137 71.5807 37.8137 71.5363 37.809C70.9003 37.7239 70.5284 37.1684 70.171 36.6283C70.0877 36.4988 70.005 36.3734 69.9166 36.2538C69.2464 35.3387 68.1355 34.7831 67.0196 34.8182C66.7748 34.8228 66.5204 34.8579 66.2756 34.8878C65.7911 34.9528 65.2924 35.0178 64.8028 34.893C63.7555 34.6181 63.1337 33.5374 62.9773 32.5826C62.8647 31.8821 62.9334 31.1671 63.056 30.4867C63.1388 30.4867 63.2221 30.4867 63.3053 30.4919C63.1832 31.162 63.1095 31.8671 63.217 32.5429C63.3594 33.4126 63.9216 34.403 64.8664 34.648C65.3065 34.763 65.7618 34.7032 66.2418 34.6433C66.4962 34.6083 66.7551 34.5732 67.0145 34.568H67.1028C68.2672 34.568 69.4175 35.1478 70.1125 36.1037C70.2003 36.2285 70.2881 36.3585 70.3764 36.4885C70.704 36.9837 71.0376 37.4887 71.5661 37.5588C72.0354 37.6187 72.5397 37.2839 73.0338 36.5638C73.9927 35.1731 74.4435 33.8577 74.3602 32.6476C74.4435 32.6826 74.5262 32.7126 74.6045 32.7425" fill="#7A7BC3"/>
<path d="M63.4765 46.6262C63.4421 46.8712 63.3886 47.1012 63.32 47.3267C63.2761 47.3318 63.2271 47.3318 63.1782 47.3318H63.0656C63.1388 47.0961 63.1978 46.8464 63.2322 46.5911C63.4033 45.3407 62.9238 44.0656 62.033 43.4203C61.8326 43.2753 61.6024 43.1505 61.3824 43.0349C60.9761 42.8152 60.5602 42.5903 60.2664 42.2101C60.0807 41.9651 59.9677 41.6798 59.8556 41.4049C59.7673 41.1851 59.684 40.9747 59.5669 40.7849C58.8961 39.7093 57.2962 39.6345 56.2247 40.2391C55.3434 40.7343 54.6979 41.5596 54.1498 42.3948C54.1003 42.3205 54.0519 42.2452 54.0074 42.1704C54.5556 41.3399 55.2117 40.5244 56.1071 40.0199C57.2765 39.3591 59.0284 39.4545 59.7723 40.6492C59.8995 40.8597 59.9924 41.0897 60.0852 41.31C60.1933 41.5798 60.2957 41.8397 60.4623 42.0548C60.7217 42.3948 61.0982 42.6001 61.4949 42.8105C61.7246 42.9354 61.9598 43.0602 62.1753 43.2155C63.1338 43.9155 63.6576 45.286 63.4765 46.6262" fill="#86C9B5"/>
<path d="M58.2991 30.8968C58.2748 30.9567 58.2506 31.0124 58.2208 31.0722C57.9372 31.6375 57.487 32.1673 56.8066 32.7327C56.7334 32.7925 56.6597 32.8523 56.5866 32.9122C56.2878 33.1526 55.9844 33.4027 55.7497 33.6978C55.2703 34.3075 55.0891 35.1132 54.9129 35.8885C54.8786 36.0479 54.8443 36.2084 54.8054 36.3688C54.492 37.6635 54.0322 38.5441 53.3619 39.1342C53.161 39.3096 52.9213 39.4597 52.6619 39.5742C52.6276 39.4994 52.5983 39.4194 52.5639 39.3441C52.7986 39.2446 53.0192 39.1043 53.205 38.9443C53.8313 38.3893 54.2669 37.5537 54.5652 36.3084C54.6045 36.1537 54.6388 35.9933 54.6782 35.8334C54.8589 35.0281 55.0451 34.1982 55.5589 33.5425C55.8083 33.2227 56.1268 32.9679 56.4346 32.7172C56.5083 32.6574 56.5815 32.5975 56.6502 32.5377C57.3058 31.9971 57.7368 31.4921 58.0008 30.9566V30.952C58.0987 30.9324 58.1966 30.9118 58.2991 30.8968" fill="#FCD7B4"/>
<path d="M64.9689 39.4689C64.8367 39.9641 64.6953 40.4542 64.5485 40.9344C64.4455 41.2599 64.3234 41.5947 64.0589 41.7402C63.7651 41.9052 63.3689 41.7649 63.1337 41.54C62.8698 41.2898 62.7133 40.9251 62.5664 40.5697C62.1601 39.6242 61.6953 38.6591 60.8196 38.1587C60.4037 37.924 59.9288 37.8136 59.4639 37.7089C58.8426 37.564 58.2551 37.4288 57.8342 37.0038C57.1347 36.2935 57.2714 35.2231 57.7706 34.5329C58.0447 34.1533 58.4752 33.8376 58.9991 33.8376C59.2191 33.8376 59.4589 33.8928 59.7087 34.0326C60.0903 34.2379 60.4426 34.5076 60.7802 34.7681C61.2597 35.1334 61.7543 35.5084 62.3509 35.7384C62.6103 35.838 62.8945 35.9081 63.1686 35.9783C63.7899 36.1336 64.4263 36.2986 64.8321 36.7938C65.4095 37.499 65.2091 38.5941 64.9689 39.4689V39.4689ZM65.0234 36.6334C64.5631 36.0732 63.8878 35.9035 63.2271 35.7384C62.948 35.6631 62.684 35.5981 62.4342 35.5032C61.8714 35.2881 61.4116 34.9379 60.9271 34.568C60.5794 34.3029 60.2225 34.0279 59.8258 33.8128C59.0233 33.3728 58.1426 33.5977 57.5702 34.388C57.0125 35.1633 56.8606 36.3734 57.6631 37.1838C58.133 37.6589 58.7836 37.809 59.4104 37.9488C59.8556 38.054 60.3154 38.1587 60.702 38.379C61.5096 38.8391 61.9547 39.7645 62.3413 40.6745C62.5028 41.05 62.6644 41.4348 62.9677 41.7247C63.1686 41.915 63.4668 42.0651 63.7702 42.0651C63.9075 42.0651 64.0493 42.0352 64.1765 41.9599C64.5192 41.7696 64.6706 41.3698 64.7781 41.0097C64.93 40.5295 65.0719 40.0343 65.2091 39.5391C65.4635 38.6044 65.6689 37.4288 65.0234 36.6334" fill="#F57B9C"/>
<path d="M69.1162 14.7218C70.0711 15.6869 71.6352 15.9706 72.3191 17.1519C73.3139 18.8722 71.7922 21.3405 72.9021 22.9855C73.5789 23.9898 75.0093 24.2673 75.6159 25.317C76.2276 26.3745 75.8799 28.0081 76.8964 28.6638C78.5852 27.3071 78.8567 24.794 78.5958 22.6146C78.1965 19.2735 76.8545 16.0552 74.7735 13.4466C73.9973 12.4738 73.1044 11.5721 72.0203 10.9846C71.0265 10.446 69.2489 9.81671 68.5171 11.0552C67.8841 12.1287 68.297 13.8928 69.1162 14.7218" fill="#332228"/>
<path d="M67.4112 13.9181C66.3892 14.4412 65.1975 14.4757 64.0559 14.4149C62.9142 14.3545 61.7609 14.2096 60.6349 14.4102C60.0585 14.5134 59.4882 14.712 59.0203 15.071C57.388 16.3255 57.5248 18.9929 56.0899 20.4775C55.4338 21.1558 54.5157 21.5107 53.8308 22.1596C52.4337 23.4827 52.2677 25.7452 50.9645 27.1653C50.6329 27.5263 50.1433 27.8395 49.6861 27.6749C49.2636 27.5233 49.0658 27.0379 48.9396 26.5989C47.7131 22.3267 48.8442 17.432 51.8114 14.1719C53.8167 11.9698 56.526 10.544 59.3342 9.64235C60.7959 9.17294 62.3307 8.8325 63.855 8.99396C65.357 9.15438 67.3436 9.81103 68.5302 10.8056C69.6814 11.7707 68.5761 13.3223 67.4112 13.9181" fill="#332228"/>
<path d="M51.1003 30.7534C51.2128 31.0124 51.3673 31.3048 51.6413 31.3492C51.8745 31.3874 52.1006 31.213 52.2056 30.9974C52.3111 30.7818 52.3222 30.5321 52.3318 30.2907C52.4075 28.3244 52.4837 26.357 52.5604 24.3901C52.5988 23.3868 52.5776 22.2339 51.8286 21.5839C49.8339 19.8543 48.8629 23.1206 48.873 24.5753C48.8876 26.6221 50.3053 28.9238 51.1003 30.7534" fill="#332228"/>
<path d="M75.5341 31.2569C75.4231 31.4849 75.2732 31.7407 75.0259 31.7701C74.8154 31.7944 74.6191 31.6293 74.5333 31.4312C74.4475 31.2337 74.447 31.0098 74.448 30.7931C74.4556 29.0269 74.4636 27.2607 74.4707 25.4945C74.4747 24.5928 74.5388 23.5606 75.2354 23.0082C77.0897 21.538 77.8341 24.5056 77.7695 25.8091C77.6772 27.6434 76.317 29.649 75.5341 31.2569" fill="#332228"/>
</svg>
